<svg version="1.1" id="Layer_1" xmlns="http://www.w3.org/2000/svg" xmlns:xlink="http://www.w3.org/1999/xlink" x="0px" y="0px"
	 width="100%" viewBox="0 0 250 184" enable-background="new 0 0 250 184" xml:space="preserve">
<path fill="#000000" opacity="1.000000" stroke="none" 
	d="
M166.000000,185.000000 
	C110.666672,185.000000 55.833340,185.000000 1.000007,185.000000 
	C1.000005,123.666672 1.000005,62.333347 1.000002,1.000016 
	C84.333321,1.000010 167.666641,1.000010 250.999969,1.000005 
	C250.999985,62.333317 250.999985,123.666634 251.000000,184.999969 
	C222.833328,185.000000 194.666672,185.000000 166.000000,185.000000 
M84.004585,71.990585 
	C84.004585,71.990585 84.034317,71.961189 83.897217,71.427269 
	C83.568275,71.339554 83.239334,71.251846 82.404198,70.949608 
	C81.956673,70.638115 81.509155,70.326614 80.836601,69.384216 
	C79.898308,68.905113 78.960014,68.426018 77.995689,67.994446 
	C77.995689,67.994446 78.046707,67.976234 77.790749,67.359558 
	C76.208427,66.216576 74.626106,65.073601 73.014091,63.989166 
	C73.014091,63.989166 73.079727,63.987709 73.135872,63.191914 
	C74.753899,55.686852 75.792641,48.267353 69.766129,41.455452 
	C69.555061,41.212833 69.290443,41.068031 68.959305,40.301670 
	C67.300346,38.875690 65.641380,37.449711 64.000748,36.000217 
	C64.000748,36.000217 63.977467,36.017784 63.840366,35.629951 
	C63.579777,35.754112 63.319187,35.878273 62.532158,36.108868 
	C62.359097,36.154697 62.186031,36.200527 61.313881,36.107643 
	C60.677456,36.347000 60.041035,36.586357 59.128674,36.383392 
	C58.788818,36.365334 58.448959,36.347275 57.511822,36.131950 
	C55.673508,37.415005 53.835194,38.698059 51.992836,39.992405 
	C51.992836,39.992405 51.983547,39.999149 51.515030,40.179520 
	C51.335995,40.454674 51.156956,40.729828 50.563736,41.039421 
	C50.563736,41.039421 50.151337,41.091042 49.426979,40.911541 
	C48.266106,42.249554 47.105232,43.587566 45.995941,44.969212 
	C45.995941,44.969212 45.935524,44.943485 45.261204,44.968983 
	C44.826717,45.625824 44.392227,46.282661 43.960136,46.967037 
	C43.960136,46.967037 43.932724,46.970551 43.306290,47.171394 
	C42.915649,49.277321 37.787968,48.091209 39.997040,52.005524 
	C39.997040,52.005524 39.985291,51.966179 39.500530,52.147209 
	C39.312088,52.428516 39.123646,52.709820 38.997936,52.999359 
	C38.997936,52.999359 38.989449,52.936661 38.494255,53.119003 
	C38.307243,53.407616 38.120232,53.696232 37.995579,53.979374 
	C37.995579,53.979374 37.950497,53.935944 37.323177,54.196445 
	C36.546085,55.464882 35.768993,56.733322 35.001678,58.002293 
	C35.001678,58.002293 35.001987,57.992897 34.422150,58.189861 
	C33.939590,59.127167 33.457031,60.064472 32.534225,61.151646 
	C32.256660,61.321552 32.069126,61.561752 31.386591,61.917992 
	C31.014263,62.964596 30.641935,64.011200 30.118511,65.490837 
	C30.118511,65.490837 29.993540,65.932129 29.517441,66.109329 
	C29.416166,66.407127 29.314892,66.704933 29.100521,67.466209 
	C29.100521,67.466209 28.995478,67.931580 28.341669,68.441193 
	C29.000956,72.199722 28.359047,77.257988 30.567581,79.469002 
	C36.778347,85.686737 45.469162,84.962624 53.080193,83.079193 
	C57.195465,82.060814 59.128132,82.471054 61.810329,85.174324 
	C73.751442,97.209221 85.862831,109.075180 97.921181,121.066711 
	C97.921181,121.066711 97.985870,121.059746 98.008469,121.986710 
	C98.005394,129.250504 97.943886,136.515121 98.048149,143.777374 
	C98.069214,145.244308 98.717758,146.702240 99.292046,148.785141 
	C104.165192,151.829407 109.038345,154.873672 114.753349,158.001923 
	C116.151543,158.007462 117.549728,158.013016 118.958420,158.056061 
	C118.958420,158.056061 118.997314,158.054077 119.162186,158.448196 
	C119.447021,158.298584 119.731865,158.148987 120.507477,157.943756 
	C120.507477,157.943756 121.000786,157.968353 121.414604,158.585754 
	C126.860893,159.043594 132.306351,159.864090 137.753677,159.876663 
	C146.535446,159.896957 155.318451,159.384720 164.842377,159.006454 
	C170.868484,157.837601 176.996704,157.031158 182.884598,155.371872 
	C186.778275,154.274582 190.485748,152.106201 191.730911,146.770432 
	C191.810013,138.187225 191.889114,129.604004 192.615005,120.740463 
	C199.164886,115.877510 206.189087,111.529236 212.154099,106.031685 
	C221.232574,97.664673 224.498749,86.530952 222.593811,74.568062 
	C221.796692,69.562195 219.180466,63.894077 215.552460,60.482658 
	C207.162460,52.593586 196.867645,51.597210 186.105774,55.985466 
	C181.312057,57.940151 174.022415,53.559029 172.932755,48.631310 
	C170.617844,38.162632 167.565872,27.972740 159.656494,19.388525 
	C158.773529,18.939110 157.890579,18.489697 156.810654,17.550648 
	C156.533493,17.341576 156.256348,17.132505 155.852432,16.498709 
	C155.665665,16.200006 155.406219,16.109730 154.541382,16.097113 
	C154.362091,16.061167 154.182816,16.025221 153.685852,15.362852 
	C144.696991,9.747159 132.290771,10.468621 124.384285,21.242643 
	C123.549187,22.505266 122.714096,23.767887 121.698387,25.040611 
	C121.698387,25.040611 121.624474,25.205719 121.356781,25.303322 
	C121.356781,25.303322 121.307533,25.583963 120.752243,25.814381 
	C120.490730,26.529278 120.229225,27.244177 119.980766,27.990957 
	C119.980766,27.990957 119.948174,27.978405 119.294807,28.252623 
	C118.841675,29.825808 118.388535,31.398991 117.990906,33.001976 
	C117.990906,33.001976 117.961823,32.946129 117.324089,33.300495 
	C116.857246,35.185532 116.390404,37.070568 116.000992,38.992985 
	C116.000992,38.992985 115.929764,38.942791 115.219101,39.328800 
	C114.895821,42.891186 114.572548,46.453575 113.941765,50.599331 
	C113.677971,51.395035 113.414169,52.190739 112.736992,53.590496 
	C109.342979,56.056839 103.991997,55.248611 101.541412,60.191452 
	C101.267509,60.370396 101.087524,60.617695 100.523552,61.116814 
	C100.431953,61.418385 100.340347,61.719959 100.131927,62.460339 
	C100.131927,62.460339 99.999237,62.894611 99.275818,63.390171 
	C99.275818,69.157074 99.275818,74.923981 99.275818,81.394890 
	C96.618500,80.531807 95.129700,80.048256 93.597946,79.402092 
	C93.597946,79.402092 93.430786,79.383469 93.144302,78.819756 
	C91.767487,77.867836 90.390671,76.915924 88.995438,75.999367 
	C88.995438,75.999367 89.031998,75.984016 88.787888,75.374199 
	C87.524300,74.582016 86.260704,73.789825 84.999313,73.000504 
	C84.999313,73.000504 85.001663,73.003616 84.870308,72.508057 
	C84.590782,72.328705 84.311249,72.149353 84.004585,71.990585 
z"/>
<path fill="#0C30A9" opacity="1.000000" stroke="none" 
	d="
M58.109104,36.329216 
	C58.448959,36.347275 58.788818,36.365334 59.699539,36.640678 
	C60.846287,36.934200 61.422165,36.970432 62.064056,37.322235 
	C62.100071,39.089333 62.070068,40.540867 61.678474,42.066437 
	C61.000530,42.233315 60.608345,42.237041 60.379044,42.432175 
	C55.958843,46.193768 51.899689,50.508301 47.066608,53.623665 
	C40.947292,57.568119 38.361858,63.706009 35.295300,69.626305 
	C34.700859,70.773941 35.249996,72.513931 35.543381,74.279526 
	C40.405521,75.330879 45.051975,76.890770 49.568325,76.577126 
	C53.098755,76.331940 56.467758,73.762299 59.974159,72.549240 
	C66.659966,79.630669 73.280106,86.388351 80.081451,93.418892 
	C82.836922,96.134392 85.411186,98.577026 88.133255,101.287689 
	C89.171791,102.379990 90.062538,103.204262 91.129913,104.310822 
	C94.290314,107.678223 97.043282,111.039345 100.317375,113.777298 
	C104.244995,117.061775 105.726212,120.864281 105.245773,125.910103 
	C105.009201,128.394699 105.867653,130.983566 106.195770,133.902252 
	C106.011635,137.790237 105.862328,141.301239 105.657440,145.145782 
	C107.836617,146.976242 109.887268,149.289978 112.335075,149.841721 
	C133.164413,154.536652 154.136826,154.566315 175.050507,150.478638 
	C184.478699,148.635834 185.540405,146.645599 184.369247,136.650757 
	C184.376389,132.148102 184.247635,128.077881 184.168915,123.572983 
	C184.246475,120.839867 184.274002,118.541420 184.634048,116.112915 
	C196.939087,111.551910 206.970673,104.777122 212.979187,92.604408 
	C214.881714,87.581779 217.463165,83.006012 215.157761,77.451279 
	C215.052429,76.758148 214.981567,76.363655 214.950104,75.568436 
	C214.601791,72.880310 214.214081,70.592911 214.045639,68.026505 
	C214.432220,66.312782 214.599533,64.878059 214.766861,63.443344 
	C212.824188,63.338966 210.881500,63.234589 208.605804,63.111420 
	C207.478104,62.512310 206.683395,61.931992 205.845612,60.966431 
	C204.941116,57.182186 202.760666,55.867321 199.275223,55.954430 
	C194.379211,56.076786 190.445114,57.640377 187.857025,62.374146 
	C186.797089,63.072624 185.934814,63.550781 184.781326,64.026672 
	C184.296143,64.027847 184.102173,64.031273 183.609375,63.920238 
	C182.208084,63.152981 181.105652,62.500175 179.991745,61.485947 
	C178.975266,60.258808 178.079224,59.177986 176.930466,58.595928 
	C176.023087,58.136181 174.024979,58.586697 173.848648,58.123653 
	C172.471237,54.506683 169.634384,56.059261 167.233063,55.618599 
	C167.200684,54.498608 167.191437,53.751778 167.539871,52.973068 
	C171.456604,50.888416 171.499207,46.889946 168.002960,42.574364 
	C167.555405,39.627392 167.281693,37.052292 166.582855,34.598255 
	C166.268372,33.493900 165.105225,32.631229 164.327164,31.658894 
	C163.448853,32.635078 162.570541,33.611271 161.421509,34.428562 
	C160.698288,33.846336 160.245789,33.423008 159.811737,32.631027 
	C158.566803,30.138769 157.303406,28.015162 155.908218,25.615343 
	C154.867279,24.518818 153.958130,23.698503 152.895920,22.615923 
	C151.823181,21.588629 150.903488,20.823603 150.101349,19.745489 
	C151.480438,18.284695 152.742004,17.136986 154.003555,15.989277 
	C154.182816,16.025221 154.362091,16.061167 154.938599,16.303516 
	C155.526260,16.685137 155.740723,16.822975 155.979202,16.923433 
	C156.256348,17.132505 156.533493,17.341576 157.006241,18.087708 
	C158.055466,19.083897 158.909103,19.543028 159.762741,20.002159 
	C167.565872,27.972740 170.617844,38.162632 172.932755,48.631310 
	C174.022415,53.559029 181.312057,57.940151 186.105774,55.985466 
	C196.867645,51.597210 207.162460,52.593586 215.552460,60.482658 
	C219.180466,63.894077 221.796692,69.562195 222.593811,74.568062 
	C224.498749,86.530952 221.232574,97.664673 212.154099,106.031685 
	C206.189087,111.529236 199.164886,115.877510 191.877655,121.037048 
	C191.069351,129.952515 190.998398,138.571396 190.927429,147.190277 
	C190.485748,152.106201 186.778275,154.274582 182.884598,155.371872 
	C176.996704,157.031158 170.868484,157.837601 164.123138,158.812332 
	C156.480698,158.415802 149.558655,158.136765 142.633987,158.032104 
	C135.424240,157.923172 128.211960,157.982559 121.000786,157.968353 
	C121.000786,157.968353 120.507477,157.943756 120.006622,157.974518 
	C119.336281,158.021530 119.166801,158.037796 118.997314,158.054077 
	C118.997314,158.054077 118.958420,158.056061 118.778915,157.751968 
	C116.850876,155.750793 115.235443,155.381012 113.911484,157.917938 
	C109.038345,154.873672 104.165192,151.829407 99.242981,148.182678 
	C99.229599,147.384903 99.265289,147.189590 99.466339,146.619537 
	C99.754601,142.822174 100.078651,139.392151 99.952721,135.978729 
	C99.768646,130.989136 99.261696,126.011444 98.665085,121.017395 
	C98.437813,121.006119 97.985870,121.059746 97.985870,121.059746 
	C97.985870,121.059746 97.921181,121.066711 97.938522,120.658882 
	C97.415764,118.932770 97.213768,117.275673 96.284004,116.347870 
	C85.256561,105.343643 74.057251,94.511368 63.054256,83.483109 
	C60.024502,80.446388 57.303051,79.403809 52.955643,81.138184 
	C41.247086,85.809258 29.868156,79.322418 28.995478,67.931580 
	C28.995478,67.931580 29.100521,67.466209 29.314068,67.076447 
	C29.722561,66.459648 29.877871,66.208122 29.993540,65.932129 
	C29.993540,65.932129 30.118511,65.490837 30.481880,65.126328 
	C31.220709,63.798634 31.596170,62.835442 31.971630,61.872246 
	C32.069126,61.561752 32.256660,61.321552 33.066521,60.966553 
	C34.066544,59.851940 34.534267,58.922421 35.001987,57.992897 
	C35.001987,57.992897 35.001678,58.002293 35.336960,57.921028 
	C36.431664,56.538490 37.191078,55.237217 37.950493,53.935944 
	C37.950497,53.935944 37.995579,53.979374 38.169579,53.838295 
	C38.558868,53.443703 38.774158,53.190182 38.989449,52.936661 
	C38.989449,52.936661 38.997936,52.999359 39.169369,52.853989 
	C39.596874,52.496941 39.811703,52.249458 39.985291,51.966179 
	C39.985291,51.966179 39.997040,52.005524 40.305695,51.894333 
	C41.720478,50.178947 42.826599,48.574749 43.932724,46.970551 
	C43.932724,46.970551 43.960136,46.967037 44.258572,46.884708 
	C45.016514,46.182751 45.476021,45.563118 45.935524,44.943485 
	C45.935524,44.943485 45.995941,44.969212 46.335152,44.946556 
	C47.833355,43.646278 48.992348,42.368660 50.151337,41.091042 
	C50.151337,41.091042 50.563736,41.039421 50.967804,40.885315 
	C51.620907,40.524902 51.824799,40.280880 51.983547,39.999149 
	C51.983547,39.999149 51.992836,39.992405 52.327927,39.997475 
	C53.107468,39.999054 53.551918,39.995564 54.084667,40.259460 
	C55.104416,40.011497 56.035866,39.496140 56.976967,38.984077 
	C56.986610,38.987373 56.994930,38.969044 57.227200,38.971489 
	C57.862663,38.814915 58.265858,38.655895 58.669052,38.496872 
	C58.430794,38.320442 58.192535,38.144012 57.999321,37.558594 
	C58.065948,36.876137 58.087524,36.602676 58.109104,36.329216 
M53.526783,43.500603 
	C53.526783,43.500603 53.486916,43.515396 53.526783,43.500603 
z"/>
<path fill="#072EAF" opacity="1.000000" stroke="none" 
	d="
M101.001457,60.933353 
	C101.087524,60.617695 101.267509,60.370396 102.132690,60.081589 
	C105.594055,58.750832 108.558228,57.702171 111.282333,56.214058 
	C112.214554,55.704807 112.544991,54.093979 113.150375,52.986443 
	C113.414169,52.190739 113.677971,51.395035 114.400085,50.137909 
	C115.215515,46.098587 115.572639,42.520691 115.929764,38.942791 
	C115.929764,38.942791 116.000992,38.992985 116.305557,38.838089 
	C117.060684,36.770836 117.511253,34.858482 117.961823,32.946129 
	C117.961823,32.946129 117.990906,33.001976 118.299957,32.856544 
	C119.055397,31.133541 119.501785,29.555973 119.948174,27.978405 
	C119.948174,27.978405 119.980766,27.990957 120.283081,27.877876 
	C120.826118,27.037851 121.066826,26.310907 121.307533,25.583963 
	C121.307533,25.583963 121.356781,25.303322 121.764114,25.560799 
	C123.137451,27.571005 124.103455,29.323732 125.032669,31.414459 
	C124.720787,32.841610 124.445694,33.930763 123.876297,35.227478 
	C123.053253,37.285542 122.524498,39.136047 121.775497,41.308884 
	C120.977982,47.687878 120.400719,53.744541 119.420601,59.838699 
	C115.565132,60.766872 111.912117,61.235847 108.750374,62.738514 
	C107.318993,63.418804 106.863441,66.152344 105.739693,68.304047 
	C105.326195,77.400406 105.138206,86.147133 104.652283,94.787674 
	C103.238106,94.125565 102.121857,93.569649 101.003540,93.003693 
	C101.001472,92.993668 100.983925,92.996292 100.843796,92.702667 
	C99.433769,91.678833 98.163879,90.948616 96.885139,90.180862 
	C96.876289,90.143311 96.801666,90.123764 96.724136,89.817589 
	C95.763710,89.015793 94.880798,88.520180 94.001816,88.009521 
	C94.005745,87.994476 93.976372,88.004623 93.854324,87.702316 
	C92.482780,86.624870 91.233284,85.849724 89.853653,84.861473 
	C89.162758,84.408791 88.602005,84.169212 87.759193,83.680016 
	C82.248260,79.342079 77.019394,75.253761 71.753990,70.990707 
	C71.409363,70.763649 71.101273,70.711327 70.530991,70.529846 
	C68.867119,69.261101 67.465439,68.121498 66.098572,66.800301 
	C65.688080,66.432724 65.242783,66.246758 64.859863,65.687286 
	C65.517387,63.168533 66.112526,61.023273 66.799858,58.447601 
	C66.961098,55.654015 67.030151,53.290844 67.263901,50.712830 
	C67.053543,49.689014 66.678474,48.880043 66.133316,47.831604 
	C65.897507,47.209187 65.831787,46.826244 66.041306,46.175209 
	C67.540283,45.604527 68.764015,45.301941 70.162918,45.341240 
	C70.790611,50.211124 71.166000,54.748882 71.737022,59.261890 
	C71.940247,60.868080 72.618385,62.414181 73.079727,63.987709 
	C73.079727,63.987709 73.014091,63.989166 73.021744,64.302734 
	C72.776978,68.610603 76.094589,67.273888 78.046707,67.976234 
	C78.046707,67.976234 77.995689,67.994446 78.115334,68.288971 
	C79.177193,69.060707 80.119415,69.537918 81.061630,70.015121 
	C81.509155,70.326614 81.956673,70.638115 82.818375,71.225800 
	C83.466331,71.713516 83.733589,71.866585 84.034317,71.961189 
	C84.034317,71.961189 84.004585,71.990585 84.140572,72.186874 
	C84.472977,72.642906 84.714676,72.849724 85.001663,73.003616 
	C85.001663,73.003616 84.999313,73.000504 85.074219,73.339127 
	C86.443420,74.446503 87.737709,75.215256 89.031998,75.984016 
	C89.031998,75.984016 88.995438,75.999367 89.073196,76.325523 
	C90.577560,77.562279 92.004173,78.472870 93.430786,79.383469 
	C93.430786,79.383469 93.597946,79.402092 93.483887,79.851410 
	C94.692764,81.851639 96.015709,83.402557 97.338654,84.953476 
	C97.888641,84.731934 98.438629,84.510391 98.988617,84.288841 
	C100.988396,77.304298 99.592484,70.019852 99.999237,62.894611 
	C99.999237,62.894611 100.131927,62.460339 100.349014,62.083542 
	C100.763092,61.478149 100.908211,61.220348 101.001457,60.933353 
z"/>
<path fill="#0D31A9" opacity="1.000000" stroke="none" 
	d="
M125.069458,31.076462 
	C124.103455,29.323732 123.137451,27.571005 121.897957,25.511997 
	C121.624474,25.205719 121.698387,25.040611 122.137177,24.948572 
	C123.385643,23.560968 124.195328,22.265406 125.005013,20.969841 
	C132.290771,10.468621 144.696991,9.747159 153.844696,15.676065 
	C152.742004,17.136986 151.480438,18.284695 149.734909,19.633183 
	C140.240723,15.626327 129.680893,21.122341 125.595848,30.901096 
	C125.421326,30.962339 125.069458,31.076462 125.069458,31.076462 
z"/>
<path fill="#1936A0" opacity="1.000000" stroke="none" 
	d="
M28.668573,68.186386 
	C29.868156,79.322418 41.247086,85.809258 52.955643,81.138184 
	C57.303051,79.403809 60.024502,80.446388 63.054256,83.483109 
	C74.057251,94.511368 85.256561,105.343643 96.284004,116.347870 
	C97.213768,117.275673 97.415764,118.932770 97.934265,120.626633 
	C85.862831,109.075180 73.751442,97.209221 61.810329,85.174324 
	C59.128132,82.471054 57.195465,82.060814 53.080193,83.079193 
	C45.469162,84.962624 36.778347,85.686737 30.567581,79.469002 
	C28.359047,77.257988 29.000956,72.199722 28.668573,68.186386 
z"/>
<path fill="#143395" opacity="1.000000" stroke="none" 
	d="
M121.207695,158.277054 
	C128.211960,157.982559 135.424240,157.923172 142.633987,158.032104 
	C149.558655,158.136765 156.480698,158.415802 163.752411,158.857819 
	C155.318451,159.384720 146.535446,159.896957 137.753677,159.876663 
	C132.306351,159.864090 126.860893,159.043594 121.207695,158.277054 
z"/>
<path fill="#1936A0" opacity="1.000000" stroke="none" 
	d="
M73.107803,63.589813 
	C72.618385,62.414181 71.940247,60.868080 71.737022,59.261890 
	C71.166000,54.748882 70.790611,50.211124 70.163750,44.949192 
	C69.987938,43.429867 69.986458,42.644474 69.984970,41.859081 
	C75.792641,48.267353 74.753899,55.686852 73.107803,63.589813 
z"/>
<path fill="#0A2EAE" opacity="1.000000" stroke="none" 
	d="
M69.875549,41.657265 
	C69.986458,42.644474 69.987938,43.429867 69.988586,44.607307 
	C68.764015,45.301941 67.540283,45.604527 65.785789,45.986015 
	C64.839508,45.332432 64.423981,44.599945 63.951126,43.778084 
	C63.763706,43.523312 63.604652,43.391747 63.064255,43.491344 
	C62.487305,43.837212 62.262741,43.985756 62.057224,43.777603 
	C62.064205,42.944736 62.052135,42.468571 62.040070,41.992401 
	C62.070068,40.540867 62.100071,39.089333 62.069748,37.132149 
	C62.009422,36.626499 62.012970,36.246361 62.012970,36.246361 
	C62.186031,36.200527 62.359097,36.154697 63.024925,36.061543 
	C63.517693,36.014217 63.977467,36.017784 63.977467,36.017784 
	C63.977467,36.017784 64.000748,36.000217 64.065544,36.342438 
	C65.744316,38.130116 67.358299,39.575581 68.972275,41.021042 
	C69.290443,41.068031 69.555061,41.212833 69.875549,41.657265 
z"/>
<path fill="#1936A0" opacity="1.000000" stroke="none" 
	d="
M99.637527,63.142391 
	C99.592484,70.019852 100.988396,77.304298 98.988617,84.288841 
	C98.438629,84.510391 97.888641,84.731934 97.338654,84.953476 
	C96.015709,83.402557 94.692764,81.851639 93.505356,79.932709 
	C95.129700,80.048256 96.618500,80.531807 99.275818,81.394890 
	C99.275818,74.923981 99.275818,69.157074 99.637527,63.142391 
z"/>
<path fill="#DBE7FE" opacity="1.000000" stroke="none" 
	d="
M97.997169,121.523224 
	C97.985870,121.059746 98.437813,121.006119 98.701096,121.483231 
	C99.076576,130.304993 99.188774,138.649643 99.300980,146.994293 
	C99.265289,147.189590 99.229599,147.384903 99.135468,147.872269 
	C98.717758,146.702240 98.069214,145.244308 98.048149,143.777374 
	C97.943886,136.515121 98.005394,129.250504 97.997169,121.523224 
z"/>
<path fill="#E8F1FF" opacity="1.000000" stroke="none" 
	d="
M191.329163,146.980347 
	C190.998398,138.571396 191.069351,129.952515 191.554260,121.177216 
	C191.889114,129.604004 191.810013,138.187225 191.329163,146.980347 
z"/>
<path fill="#1936A0" opacity="1.000000" stroke="none" 
	d="
M112.943680,53.288467 
	C112.544991,54.093979 112.214554,55.704807 111.282333,56.214058 
	C108.558228,57.702171 105.594055,58.750832 102.350159,59.996536 
	C103.991997,55.248611 109.342979,56.056839 112.943680,53.288467 
z"/>
<path fill="#1936A0" opacity="1.000000" stroke="none" 
	d="
M115.574432,39.135796 
	C115.572639,42.520691 115.215515,46.098587 114.553833,49.846222 
	C114.572548,46.453575 114.895821,42.891186 115.574432,39.135796 
z"/>
<path fill="#1936A0" opacity="1.000000" stroke="none" 
	d="
M68.965790,40.661354 
	C67.358299,39.575581 65.744316,38.130116 64.056381,36.354195 
	C65.641380,37.449711 67.300346,38.875690 68.965790,40.661354 
z"/>
<path fill="#1936A0" opacity="1.000000" stroke="none" 
	d="
M53.996368,39.992073 
	C53.551918,39.995564 53.107468,39.999054 52.329948,39.991829 
	C53.835194,38.698059 55.673508,37.415005 57.810463,36.230583 
	C58.087524,36.602676 58.065948,36.876137 57.818314,37.704483 
	C57.358856,38.467060 57.159748,38.703621 56.994930,38.969044 
	C56.994930,38.969044 56.986610,38.987373 56.654243,38.999786 
	C55.546707,39.338825 54.771538,39.665451 53.996368,39.992073 
z"/>
<path fill="#1936A0" opacity="1.000000" stroke="none" 
	d="
M43.619507,47.070969 
	C42.826599,48.574749 41.720478,50.178947 40.289146,51.881985 
	C37.787968,48.091209 42.915649,49.277321 43.619507,47.070969 
z"/>
<path fill="#1936A0" opacity="1.000000" stroke="none" 
	d="
M77.918732,67.667892 
	C76.094589,67.273888 72.776978,68.610603 73.036591,64.273453 
	C74.626106,65.073601 76.208427,66.216576 77.918732,67.667892 
z"/>
<path fill="#1936A0" opacity="1.000000" stroke="none" 
	d="
M49.789158,41.001289 
	C48.992348,42.368660 47.833355,43.646278 46.309364,44.924740 
	C47.105232,43.587566 48.266106,42.249554 49.789158,41.001289 
z"/>
<path fill="#1936A0" opacity="1.000000" stroke="none" 
	d="
M93.287544,79.101608 
	C92.004173,78.472870 90.577560,77.562279 89.082397,76.307846 
	C90.390671,76.915924 91.767487,77.867836 93.287544,79.101608 
z"/>
<path fill="#1936A0" opacity="1.000000" stroke="none" 
	d="
M117.642960,33.123314 
	C117.511253,34.858482 117.060684,36.770836 116.266830,38.819397 
	C116.390404,37.070568 116.857246,35.185532 117.642960,33.123314 
z"/>
<path fill="#143395" opacity="1.000000" stroke="none" 
	d="
M114.332413,157.959930 
	C115.235443,155.381012 116.850876,155.750793 118.773666,157.733215 
	C117.549728,158.013016 116.151543,158.007462 114.332413,157.959930 
z"/>
<path fill="#1936A0" opacity="1.000000" stroke="none" 
	d="
M124.694649,21.106243 
	C124.195328,22.265406 123.385643,23.560968 122.227478,24.943520 
	C122.714096,23.767887 123.549187,22.505266 124.694649,21.106243 
z"/>
<path fill="#1936A0" opacity="1.000000" stroke="none" 
	d="
M119.621490,28.115513 
	C119.501785,29.555973 119.055397,31.133541 118.272202,32.841644 
	C118.388535,31.398991 118.841675,29.825808 119.621490,28.115513 
z"/>
<path fill="#1936A0" opacity="1.000000" stroke="none" 
	d="
M37.636833,54.066193 
	C37.191078,55.237217 36.431664,56.538490 35.332073,57.920761 
	C35.768993,56.733322 36.546085,55.464882 37.636833,54.066193 
z"/>
<path fill="#1936A0" opacity="1.000000" stroke="none" 
	d="
M88.909943,75.679108 
	C87.737709,75.215256 86.443420,74.446503 85.073120,73.337692 
	C86.260704,73.789825 87.524300,74.582016 88.909943,75.679108 
z"/>
<path fill="#1936A0" opacity="1.000000" stroke="none" 
	d="
M34.712067,58.091377 
	C34.534267,58.922421 34.066544,59.851940 33.286648,60.891617 
	C33.457031,60.064472 33.939590,59.127167 34.712067,58.091377 
z"/>
<path fill="#1936A0" opacity="1.000000" stroke="none" 
	d="
M80.949112,69.699669 
	C80.119415,69.537918 79.177193,69.060707 78.128349,68.265213 
	C78.960014,68.426018 79.898308,68.905113 80.949112,69.699669 
z"/>
<path fill="#0D31A9" opacity="1.000000" stroke="none" 
	d="
M159.709625,19.695343 
	C158.909103,19.543028 158.055466,19.083897 157.104721,18.332523 
	C157.890579,18.489697 158.773529,18.939110 159.709625,19.695343 
z"/>
<path fill="#1936A0" opacity="1.000000" stroke="none" 
	d="
M31.679111,61.895119 
	C31.596170,62.835442 31.220709,63.798634 30.557426,64.909813 
	C30.641935,64.011200 31.014263,62.964596 31.679111,61.895119 
z"/>
<path fill="#1936A0" opacity="1.000000" stroke="none" 
	d="
M45.598366,44.956234 
	C45.476021,45.563118 45.016514,46.182751 44.257370,46.870941 
	C44.392227,46.282661 44.826717,45.625824 45.598366,44.956234 
z"/>
<path fill="#1936A0" opacity="1.000000" stroke="none" 
	d="
M121.029892,25.699173 
	C121.066826,26.310907 120.826118,27.037851 120.276566,27.861935 
	C120.229225,27.244177 120.490730,26.529278 121.029892,25.699173 
z"/>
<path fill="#1936A0" opacity="1.000000" stroke="none" 
	d="
M61.663425,36.177002 
	C62.012970,36.246361 62.009422,36.626499 62.003731,36.816582 
	C61.422165,36.970432 60.846287,36.934200 59.837509,36.861839 
	C60.041035,36.586357 60.677456,36.347000 61.663425,36.177002 
z"/>
<path fill="#1936A0" opacity="1.000000" stroke="none" 
	d="
M51.749290,40.089333 
	C51.824799,40.280880 51.620907,40.524902 51.174896,40.868095 
	C51.156956,40.729828 51.335995,40.454674 51.749290,40.089333 
z"/>
<path fill="#143395" opacity="1.000000" stroke="none" 
	d="
M119.079750,158.251129 
	C119.166801,158.037796 119.336281,158.021530 119.761230,158.002319 
	C119.731865,158.148987 119.447021,158.298584 119.079750,158.251129 
z"/>
<path fill="#0D31A9" opacity="1.000000" stroke="none" 
	d="
M155.915817,16.711071 
	C155.740723,16.822975 155.526260,16.685137 155.204971,16.368896 
	C155.406219,16.109730 155.665665,16.200006 155.915817,16.711071 
z"/>
<path fill="#1936A0" opacity="1.000000" stroke="none" 
	d="
M38.741852,53.027832 
	C38.774158,53.190182 38.558868,53.443703 38.138397,53.841034 
	C38.120232,53.696232 38.307243,53.407616 38.741852,53.027832 
z"/>
<path fill="#1936A0" opacity="1.000000" stroke="none" 
	d="
M83.965767,71.694229 
	C83.733589,71.866585 83.466331,71.713516 83.071472,71.333061 
	C83.239334,71.251846 83.568275,71.339554 83.965767,71.694229 
z"/>
<path fill="#1936A0" opacity="1.000000" stroke="none" 
	d="
M100.762505,61.025085 
	C100.908211,61.220348 100.763092,61.478149 100.407425,61.864143 
	C100.340347,61.719959 100.431953,61.418385 100.762505,61.025085 
z"/>
<path fill="#1936A0" opacity="1.000000" stroke="none" 
	d="
M63.908916,35.823868 
	C63.977467,36.017784 63.517693,36.014217 63.288147,36.008324 
	C63.319187,35.878273 63.579777,35.754112 63.908916,35.823868 
z"/>
<path fill="#1936A0" opacity="1.000000" stroke="none" 
	d="
M84.935989,72.755836 
	C84.714676,72.849724 84.472977,72.642906 84.154144,72.176582 
	C84.311249,72.149353 84.590782,72.328705 84.935989,72.755836 
z"/>
<path fill="#1936A0" opacity="1.000000" stroke="none" 
	d="
M39.742912,52.056694 
	C39.811703,52.249458 39.596874,52.496941 39.138004,52.849873 
	C39.123646,52.709820 39.312088,52.428516 39.742912,52.056694 
z"/>
<path fill="#1936A0" opacity="1.000000" stroke="none" 
	d="
M29.755489,66.020729 
	C29.877871,66.208122 29.722561,66.459648 29.370615,66.844711 
	C29.314892,66.704933 29.416166,66.407127 29.755489,66.020729 
z"/>
<path fill="#4D95F4" opacity="1.000000" stroke="none" 
	d="
M184.233353,137.083206 
	C185.540405,146.645599 184.478699,148.635834 175.050507,150.478638 
	C154.136826,154.566315 133.164413,154.536652 112.335075,149.841721 
	C109.887268,149.289978 107.836617,146.976242 106.008331,145.169174 
	C108.620918,145.269287 110.827034,145.679550 113.314857,146.260666 
	C114.394562,145.197876 115.870079,143.963959 115.869598,142.730621 
	C115.867813,138.150177 115.380226,133.569916 115.401268,129.145355 
	C116.195526,130.651855 116.861038,131.969543 117.093697,133.359680 
	C117.727570,137.147156 119.378166,139.332016 123.684395,139.085388 
	C125.916000,138.957565 128.214432,140.164886 130.461502,140.094376 
	C133.028152,140.013840 135.571259,139.183151 138.445374,138.715210 
	C139.393738,138.890198 140.021317,139.028397 140.613571,139.418167 
	C140.555176,139.837616 140.532135,140.005478 140.388824,140.442429 
	C140.195129,141.494019 140.121719,142.276505 140.023895,143.036896 
	C139.999466,143.014786 140.063538,143.029770 139.946106,143.120255 
	C139.655670,143.493210 139.700027,143.747528 140.098022,144.320892 
	C141.340485,150.552338 142.384674,151.193436 146.369247,148.394958 
	C146.415009,148.383209 146.412491,148.288742 146.644775,148.131622 
	C146.940842,147.264572 147.004639,146.554657 147.280045,145.527771 
	C147.839325,144.537491 148.186981,143.864151 148.705994,143.154877 
	C149.083252,142.972076 149.189972,142.772232 149.482208,142.364899 
	C150.028854,141.871170 150.290802,141.531982 150.829544,141.180817 
	C151.649582,141.078308 152.192810,140.987762 152.972504,140.788712 
	C153.457016,140.441864 153.705093,140.203522 154.175323,139.706360 
	C156.333328,138.825546 158.269150,138.203537 160.569458,137.623566 
	C161.617096,137.109344 162.300247,136.553101 163.153381,135.753082 
	C163.884415,135.349594 164.445480,135.189880 165.308945,135.260162 
	C171.818695,136.021149 178.026016,136.552185 184.233353,137.083206 
z"/>
<path fill="#54A1F4" opacity="1.000000" stroke="none" 
	d="
M66.707664,58.878017 
	C66.112526,61.023273 65.517387,63.168533 64.587646,65.869102 
	C63.827152,67.441963 63.401264,68.459511 62.968491,69.490387 
	C62.961601,69.503716 62.960533,69.520813 62.630909,69.639313 
	C61.503685,70.580376 60.706089,71.402931 59.908493,72.225494 
	C56.467758,73.762299 53.098755,76.331940 49.568325,76.577126 
	C45.051975,76.890770 40.405521,75.330879 35.866245,74.075745 
	C38.096199,72.103432 40.556942,70.920845 42.400951,69.110168 
	C47.904686,63.705925 53.166595,58.055408 58.678665,52.874474 
	C60.103157,57.020351 62.962303,58.568832 66.707664,58.878017 
z"/>
<path fill="#7FA8F4" opacity="1.000000" stroke="none" 
	d="
M113.033142,146.089798 
	C110.827034,145.679550 108.620918,145.269287 106.063919,144.835632 
	C105.862328,141.301239 106.011635,137.790237 106.392715,133.419907 
	C106.711235,120.039368 106.797981,107.518181 106.916397,94.540253 
	C107.017067,90.739151 107.086067,87.394783 107.531883,84.095886 
	C108.602959,85.450844 109.803352,86.721886 109.906273,88.076317 
	C110.428894,94.954155 110.581230,101.859772 111.073776,108.740578 
	C111.178078,110.197708 112.161430,111.591919 112.891922,113.306351 
	C113.097389,114.028595 113.150726,114.459595 112.975403,115.102097 
	C112.501411,115.877182 112.256081,116.440758 112.016785,117.430588 
	C112.359596,127.267822 112.696373,136.678818 113.033142,146.089798 
z"/>
<path fill="#1643AD" opacity="1.000000" stroke="none" 
	d="
M58.522953,52.501076 
	C53.166595,58.055408 47.904686,63.705925 42.400951,69.110168 
	C40.556942,70.920845 38.096199,72.103432 35.594490,73.776894 
	C35.249996,72.513931 34.700859,70.773941 35.295300,69.626305 
	C38.361858,63.706009 40.947292,57.568119 47.066608,53.623665 
	C51.899689,50.508301 55.958843,46.193768 60.379044,42.432175 
	C60.608345,42.237041 61.000530,42.233315 61.678474,42.066437 
	C62.052135,42.468571 62.064205,42.944736 62.062622,44.132298 
	C60.873631,47.396152 59.698292,49.948612 58.522953,52.501076 
z"/>
<path fill="#437BED" opacity="1.000000" stroke="none" 
	d="
M106.884720,94.996979 
	C106.797981,107.518181 106.711235,120.039368 106.427536,133.042908 
	C105.867653,130.983566 105.009201,128.394699 105.245773,125.910103 
	C105.726212,120.864281 104.244995,117.061775 100.317375,113.777298 
	C97.043282,111.039345 94.290314,107.678223 91.492401,104.272781 
	C94.737694,102.495461 98.206734,101.410286 98.328712,97.095993 
	C100.205421,97.726067 101.753540,98.248558 103.301659,98.771057 
	C103.421631,98.377625 103.541603,97.984184 103.661575,97.590744 
	C102.776253,96.065071 101.890938,94.539398 101.005615,93.013725 
	C102.121857,93.569649 103.238106,94.125565 104.812767,94.926956 
	C105.809036,95.113953 106.346878,95.055466 106.884720,94.996979 
z"/>
<path fill="#4C93F6" opacity="1.000000" stroke="none" 
	d="
M167.182190,53.004944 
	C167.191437,53.751778 167.200684,54.498608 167.138214,55.970047 
	C167.061096,57.421257 167.055664,58.147854 167.095886,59.154167 
	C167.753448,60.108807 168.365387,60.783733 168.897293,61.885719 
	C168.742462,62.886738 168.667664,63.460697 168.392303,64.124786 
	C168.388519,64.803909 168.585297,65.392891 168.844360,66.332443 
	C168.964157,67.392143 169.021667,68.101280 169.064209,69.223740 
	C169.048676,70.464188 169.048126,71.291306 169.042877,72.431885 
	C169.023788,73.165382 169.009384,73.585426 168.752670,74.076889 
	C168.676819,74.766640 168.843277,75.384964 168.956711,76.365021 
	C167.682220,77.763618 166.236755,79.816551 165.289871,79.607811 
	C163.727814,79.263466 162.498749,77.444908 161.109222,76.271515 
	C159.690002,75.073051 158.246567,73.903267 157.093918,72.558144 
	C158.207825,72.169998 159.041550,71.944641 159.992462,71.691010 
	C160.109634,71.662727 160.180862,71.357010 160.180862,71.357010 
	C160.180862,71.357010 159.904007,71.154472 159.896149,70.882721 
	C159.890961,70.429733 159.893646,70.248505 160.175598,69.784248 
	C159.966125,66.312889 159.477386,63.124569 158.990875,59.656487 
	C158.991516,59.003513 158.989960,58.630306 159.223526,58.098686 
	C159.668976,57.629948 159.879303,57.319622 160.441528,56.964058 
	C162.627930,54.901741 164.462433,52.884655 166.463348,51.106812 
	C166.813919,51.899017 166.998062,52.451981 167.182190,53.004944 
z"/>
<path fill="#498BEC" opacity="1.000000" stroke="none" 
	d="
M184.369247,136.650757 
	C178.026016,136.552185 171.818695,136.021149 165.474152,134.968353 
	C169.182816,130.539017 173.028702,126.631439 177.191071,122.979202 
	C179.711334,123.492249 181.915115,123.749954 184.118866,124.007660 
	C184.247635,128.077881 184.376389,132.148102 184.369247,136.650757 
z"/>
<path fill="#385DEE" opacity="1.000000" stroke="none" 
	d="
M59.974159,72.549240 
	C60.706089,71.402931 61.503685,70.580376 62.793182,69.975914 
	C70.514061,75.509499 77.743042,80.824982 84.952316,86.495499 
	C83.255157,88.949028 81.577705,91.047531 79.900253,93.146042 
	C73.280106,86.388351 66.659966,79.630669 59.974159,72.549240 
z"/>
<path fill="#325AEA" opacity="1.000000" stroke="none" 
	d="
M212.802933,92.931366 
	C206.970673,104.777122 196.939087,111.551910 184.555496,115.647079 
	C184.217712,113.451843 184.291000,111.592392 184.701111,109.745026 
	C194.506424,106.959732 200.907242,100.162796 207.237778,93.134636 
	C209.268066,93.202316 211.035507,93.066841 212.802933,92.931366 
z"/>
<path fill="#3F6DEE" opacity="1.000000" stroke="none" 
	d="
M125.770370,30.839851 
	C129.680893,21.122341 140.240723,15.626327 149.617371,19.946270 
	C150.903488,20.823603 151.823181,21.588629 152.469345,22.594145 
	C150.085190,23.266285 147.974564,23.697935 145.436035,24.124718 
	C137.532959,22.212214 134.045303,27.269371 130.420624,32.070312 
	C128.760040,31.455870 127.265205,31.147860 125.770370,30.839851 
z"/>
<path fill="#4E95F6" opacity="1.000000" stroke="none" 
	d="
M185.072540,64.028938 
	C185.934814,63.550781 186.797089,63.072624 188.233231,62.283798 
	C192.534973,61.352859 196.262848,60.732586 200.023285,60.498165 
	C200.357559,62.442059 200.659256,64.000107 200.552872,65.522606 
	C194.150391,64.677475 189.591202,67.655830 184.932205,70.982971 
	C183.762695,70.165810 182.884811,69.506119 182.160995,68.560684 
	C182.903671,67.113205 183.492279,65.951477 184.294815,64.739441 
	C184.770782,64.532387 184.958710,64.312317 185.072540,64.028938 
z"/>
<path fill="#3B68F2" opacity="1.000000" stroke="none" 
	d="
M80.081451,93.418900 
	C81.577705,91.047531 83.255157,88.949028 85.247139,86.590454 
	C86.336098,86.619530 87.110527,86.908661 88.062881,87.459160 
	C89.490997,89.163277 90.741211,90.606026 91.969345,92.408890 
	C90.626656,95.519226 89.306053,98.269447 87.985458,101.019669 
	C85.411186,98.577026 82.836922,96.134392 80.081451,93.418900 
z"/>
<path fill="#3F6EF0" opacity="1.000000" stroke="none" 
	d="
M212.979187,92.604401 
	C211.035507,93.066841 209.268066,93.202316 207.336319,92.787979 
	C208.482147,87.809067 209.792297,83.379967 211.419067,79.016220 
	C212.887878,78.637680 214.040039,78.193802 215.192215,77.749924 
	C217.463165,83.006012 214.881714,87.581779 212.979187,92.604401 
z"/>
<path fill="#5395F6" opacity="1.000000" stroke="none" 
	d="
M184.080887,64.789749 
	C183.492279,65.951477 182.903671,67.113205 181.771225,68.626343 
	C177.167435,70.024635 173.107498,71.071526 169.047562,72.118423 
	C169.048126,71.291306 169.048676,70.464188 169.447784,69.240936 
	C172.957962,67.955917 176.069595,67.067039 179.181229,66.178169 
	C179.141144,65.412727 179.101059,64.647293 179.060974,63.881851 
	C175.699753,63.074120 172.338547,62.266388 168.977325,61.458656 
	C168.365387,60.783733 167.753448,60.108807 167.485245,59.234497 
	C171.887039,59.972534 175.945129,60.909950 180.003204,61.847366 
	C181.105652,62.500175 182.208084,63.152981 183.657043,64.107956 
	C184.003540,64.410126 184.080887,64.789749 184.080887,64.789749 
z"/>
<path fill="#427FF4" opacity="1.000000" stroke="none" 
	d="
M184.364288,109.732948 
	C184.291000,111.592392 184.217712,113.451843 184.222977,115.777130 
	C184.274002,118.541420 184.246475,120.839867 184.168915,123.572983 
	C181.915115,123.749954 179.711334,123.492249 177.205017,122.604019 
	C177.754776,117.981575 178.607071,113.989647 179.848145,109.998199 
	C181.544144,109.953873 182.851379,109.909058 184.193619,109.805695 
	C184.228622,109.747154 184.364304,109.732948 184.364288,109.732948 
z"/>
<path fill="#4075F3" opacity="1.000000" stroke="none" 
	d="
M88.133247,101.287689 
	C89.306053,98.269447 90.626656,95.519226 92.262405,92.550659 
	C94.385078,93.884346 96.192604,95.436378 98.000122,96.988411 
	C98.206734,101.410286 94.737694,102.495461 91.315765,103.990494 
	C90.062538,103.204262 89.171791,102.379990 88.133247,101.287689 
z"/>
<path fill="#6EA4F6" opacity="1.000000" stroke="none" 
	d="
M205.888702,61.351677 
	C206.683395,61.931992 207.478104,62.512310 208.823303,63.353996 
	C210.857986,65.178757 212.342178,66.742134 213.826370,68.305511 
	C214.214081,70.592911 214.601791,72.880310 214.492188,75.578171 
	C213.078842,75.978943 212.162796,75.969246 211.237030,75.743988 
	C211.199982,75.226791 211.275299,74.953468 211.549835,74.320717 
	C210.383545,72.311386 209.120697,70.689781 207.591675,68.934364 
	C206.566177,68.169571 205.806839,67.538589 204.945465,66.606201 
	C204.242905,64.503822 203.642380,62.702850 203.400482,60.937298 
	C204.468979,61.099037 205.178848,61.225357 205.888702,61.351677 
z"/>
<path fill="#0732AD" opacity="1.000000" stroke="none" 
	d="
M205.845612,60.966434 
	C205.178848,61.225357 204.468979,61.099037 203.155945,60.718323 
	C201.698746,60.346725 200.844742,60.229519 199.990723,60.112312 
	C196.262848,60.732586 192.534973,61.352859 188.430893,62.063477 
	C190.445114,57.640377 194.379211,56.076786 199.275223,55.954430 
	C202.760666,55.867321 204.941116,57.182186 205.845612,60.966434 
z"/>
<path fill="#0731AF" opacity="1.000000" stroke="none" 
	d="
M161.692230,34.587463 
	C162.570541,33.611271 163.448853,32.635078 164.327164,31.658894 
	C165.105225,32.631229 166.268372,33.493900 166.582855,34.598255 
	C167.281693,37.052292 167.555405,39.627392 167.746780,42.805374 
	C166.778198,44.029366 166.065247,44.601116 165.232361,44.868248 
	C164.652130,43.072334 164.191833,41.581039 164.003036,40.006821 
	C163.860336,39.282494 163.446136,38.641094 162.894379,37.810127 
	C162.591217,37.347389 162.371124,37.129181 162.065460,36.664692 
	C161.920319,35.771454 161.806274,35.179459 161.692230,34.587463 
z"/>
<path fill="#96B7F6" opacity="1.000000" stroke="none" 
	d="
M145.863922,24.129585 
	C147.974564,23.697935 150.085190,23.266285 152.622406,22.856413 
	C153.958130,23.698503 154.867279,24.518818 155.884552,26.007938 
	C154.619873,27.792610 153.247070,28.908478 151.631897,29.812126 
	C149.547668,27.776464 147.705795,25.953026 145.863922,24.129585 
z"/>
<path fill="#0732AD" opacity="1.000000" stroke="none" 
	d="
M179.991745,61.485947 
	C175.945129,60.909950 171.887039,59.972534 167.439606,58.954788 
	C167.055664,58.147854 167.061096,57.421257 167.161377,56.343208 
	C169.634384,56.059261 172.471237,54.506683 173.848648,58.123653 
	C174.024979,58.586697 176.023087,58.136181 176.930466,58.595928 
	C178.079224,59.177986 178.975266,60.258808 179.991745,61.485947 
z"/>
<path fill="#0732AD" opacity="1.000000" stroke="none" 
	d="
M165.352280,45.172867 
	C166.065247,44.601116 166.778198,44.029366 167.747314,43.226601 
	C171.499207,46.889946 171.456604,50.888416 167.539886,52.973068 
	C166.998062,52.451981 166.813919,51.899017 166.431381,50.696541 
	C165.939423,48.422310 165.645859,46.797588 165.352280,45.172867 
z"/>
<path fill="#7DA2F5" opacity="1.000000" stroke="none" 
	d="
M151.874268,30.024347 
	C153.247070,28.908478 154.619873,27.792610 156.016342,26.284149 
	C157.303406,28.015162 158.566803,30.138769 159.478760,32.793808 
	C157.401459,33.548603 155.675598,33.771965 153.734680,33.750668 
	C152.971176,32.345451 152.422714,31.184898 151.874268,30.024347 
z"/>
<path fill="#6695F5" opacity="1.000000" stroke="none" 
	d="
M153.949738,33.995331 
	C155.675598,33.771965 157.401459,33.548603 159.460297,33.162460 
	C160.245789,33.423008 160.698288,33.846336 161.421509,34.428566 
	C161.806274,35.179459 161.920319,35.771454 161.709106,36.739128 
	C159.556320,37.759842 157.728806,38.404884 155.708679,38.770332 
	C154.993973,36.992271 154.471863,35.493797 153.949738,33.995331 
z"/>
<path fill="#0934B0" opacity="1.000000" stroke="none" 
	d="
M214.045639,68.026505 
	C212.342178,66.742134 210.857986,65.178757 209.156311,63.372795 
	C210.881500,63.234589 212.824188,63.338966 214.766861,63.443344 
	C214.599533,64.878059 214.432220,66.312782 214.045639,68.026505 
z"/>
<path fill="#1936A0" opacity="1.000000" stroke="none" 
	d="
M99.466347,146.619537 
	C99.188774,138.649643 99.076576,130.304993 98.928375,121.494507 
	C99.261696,126.011444 99.768646,130.989136 99.952721,135.978729 
	C100.078651,139.392151 99.754601,142.822174 99.466347,146.619537 
z"/>
<path fill="#538FEE" opacity="1.000000" stroke="none" 
	d="
M211.246765,75.959557 
	C212.162796,75.969246 213.078842,75.978943 214.452789,75.978897 
	C214.981567,76.363655 215.052429,76.758148 215.157761,77.451279 
	C214.040039,78.193802 212.887878,78.637680 211.378265,78.714127 
	C211.096130,77.550980 211.171448,76.755272 211.246765,75.959557 
z"/>
<path fill="#0A2EAE" opacity="1.000000" stroke="none" 
	d="
M54.084667,40.259460 
	C54.771538,39.665451 55.546707,39.338825 56.644596,38.996490 
	C56.035866,39.496140 55.104416,40.011497 54.084667,40.259460 
z"/>
<path fill="#0A2EAE" opacity="1.000000" stroke="none" 
	d="
M57.227200,38.971489 
	C57.159748,38.703621 57.358856,38.467060 57.773270,38.113476 
	C58.192535,38.144012 58.430794,38.320442 58.669052,38.496872 
	C58.265858,38.655895 57.862663,38.814915 57.227200,38.971489 
z"/>
<path fill="#0A2EAE" opacity="1.000000" stroke="none" 
	d="
M53.506851,43.507999 
	C53.486916,43.515396 53.526783,43.500603 53.506851,43.507999 
z"/>
<path fill="#0732AD" opacity="1.000000" stroke="none" 
	d="
M184.294815,64.739441 
	C184.080887,64.789749 184.003540,64.410126 183.955872,64.222412 
	C184.102173,64.031273 184.296143,64.027847 184.781326,64.026672 
	C184.958710,64.312317 184.770782,64.532387 184.294815,64.739441 
z"/>
<path fill="#55A2F7" opacity="1.000000" stroke="none" 
	d="
M105.965195,67.954407 
	C106.863441,66.152344 107.318993,63.418804 108.750374,62.738514 
	C111.912117,61.235847 115.565132,60.766872 119.829758,59.888988 
	C121.463577,59.979614 122.285362,60.057449 123.166840,60.464371 
	C125.667305,62.311115 128.020798,63.998135 130.567322,65.310669 
	C135.646652,67.928696 140.831924,70.341133 145.688065,73.059982 
	C141.617828,73.227402 137.813461,73.397858 134.052368,73.070686 
	C127.063660,72.462761 120.100197,71.564606 112.835297,70.601654 
	C110.351311,69.595482 108.158249,68.774940 105.965195,67.954407 
z"/>
<path fill="#3A6AEF" opacity="1.000000" stroke="none" 
	d="
M123.107155,60.135284 
	C122.285362,60.057449 121.463577,59.979614 120.232620,59.851490 
	C120.400719,53.744541 120.977982,47.687878 122.206757,41.311028 
	C124.584236,40.987797 126.310188,40.984760 128.057816,41.415123 
	C127.681068,45.902222 127.060669,49.952827 127.004021,54.011299 
	C126.984055,55.441891 128.343399,56.891731 129.079407,58.609497 
	C129.063004,59.255268 129.040161,59.624329 129.024567,60.032623 
	C129.031830,60.071861 129.070541,60.141655 128.642609,60.110085 
	C126.512169,60.097435 124.809662,60.116360 123.107155,60.135284 
z"/>
<path fill="#6684F8" opacity="1.000000" stroke="none" 
	d="
M87.884964,87.197792 
	C87.110527,86.908661 86.336098,86.619530 85.266846,86.235428 
	C77.743042,80.824982 70.514061,75.509499 63.122807,69.857414 
	C62.960533,69.520813 62.961601,69.503716 63.199913,69.239365 
	C64.313400,68.310646 65.188583,67.646278 66.063759,66.981903 
	C67.465439,68.121498 68.867119,69.261101 70.765327,70.687927 
	C71.438072,71.038582 71.614296,71.102013 71.790520,71.165443 
	C77.019394,75.253761 82.248260,79.342079 87.758041,83.993896 
	C87.987625,85.437523 87.936295,86.317657 87.884964,87.197792 
z"/>
<path fill="#8BC0F6" opacity="1.000000" stroke="none" 
	d="
M58.678665,52.874474 
	C59.698292,49.948612 60.873631,47.396152 62.043571,44.488995 
	C62.262741,43.985756 62.487305,43.837212 63.168953,43.678585 
	C63.626034,43.668503 64.008453,43.867455 64.008453,43.867455 
	C64.423981,44.599945 64.839508,45.332432 65.510544,46.254112 
	C65.831787,46.826244 65.897507,47.209187 66.168686,48.126396 
	C66.615829,49.416332 66.857513,50.172001 67.099197,50.927673 
	C67.030151,53.290844 66.961098,55.654015 66.799858,58.447601 
	C62.962303,58.568832 60.103157,57.020351 58.678665,52.874474 
z"/>
<path fill="#345FE1" opacity="1.000000" stroke="none" 
	d="
M105.739685,68.304047 
	C108.158249,68.774940 110.351311,69.595482 112.796074,70.973618 
	C113.012642,72.024620 112.977501,72.518021 112.608101,72.952164 
	C111.187584,72.585899 110.101334,72.278885 108.815361,71.908714 
	C108.615646,71.845558 108.198769,71.804298 108.061623,71.702194 
	C107.690727,71.750778 107.456985,71.901451 107.196320,72.361343 
	C107.180511,73.083130 107.191635,73.495697 107.140282,74.365402 
	C107.103561,77.898499 107.129311,80.974457 107.155067,84.050415 
	C107.086067,87.394783 107.017067,90.739151 106.916397,94.540253 
	C106.346878,95.055466 105.809036,95.113953 105.110703,95.033142 
	C105.138206,86.147133 105.326195,77.400406 105.739685,68.304047 
z"/>
<path fill="#6995F9" opacity="1.000000" stroke="none" 
	d="
M88.062881,87.459160 
	C87.936295,86.317657 87.987625,85.437523 88.040100,84.243515 
	C88.602005,84.169212 89.162758,84.408791 89.917542,85.199402 
	C91.399826,86.501831 92.688103,87.253227 93.976372,88.004623 
	C93.976372,88.004623 94.005745,87.994476 94.077576,88.323776 
	C95.033501,89.143311 95.917580,89.633537 96.801666,90.123764 
	C96.801666,90.123764 96.876289,90.143311 96.982361,90.498436 
	C98.386932,91.567810 99.685425,92.282051 100.983925,92.996292 
	C100.983925,92.996292 101.001472,92.993668 101.003540,93.003693 
	C101.890938,94.539398 102.776253,96.065071 103.661575,97.590744 
	C103.541603,97.984184 103.421631,98.377625 103.301659,98.771057 
	C101.753540,98.248558 100.205421,97.726067 98.328712,97.095993 
	C96.192604,95.436378 94.385078,93.884346 92.284492,92.190536 
	C90.741211,90.606026 89.490997,89.163277 88.062881,87.459160 
z"/>
<path fill="#7596F7" opacity="1.000000" stroke="none" 
	d="
M125.595848,30.901096 
	C127.265205,31.147860 128.760040,31.455870 130.268402,32.404625 
	C129.521851,35.009762 128.761795,36.974155 127.714897,38.797363 
	C126.342247,37.444092 125.256424,36.232002 124.170593,35.019913 
	C124.445694,33.930763 124.720787,32.841610 125.032669,31.414459 
	C125.069458,31.076462 125.421326,30.962339 125.595848,30.901096 
z"/>
<path fill="#4B72F0" opacity="1.000000" stroke="none" 
	d="
M123.876297,35.227474 
	C125.256424,36.232002 126.342247,37.444092 127.731308,39.138668 
	C128.035080,40.074680 128.035614,40.528202 128.036148,40.981724 
	C126.310188,40.984760 124.584236,40.987797 122.427010,40.988693 
	C122.524498,39.136047 123.053253,37.285542 123.876297,35.227474 
z"/>
<path fill="#437BED" opacity="1.000000" stroke="none" 
	d="
M93.854324,87.702316 
	C92.688103,87.253227 91.399826,86.501831 90.047668,85.412506 
	C91.233284,85.849724 92.482780,86.624870 93.854324,87.702316 
z"/>
<path fill="#437BED" opacity="1.000000" stroke="none" 
	d="
M100.843796,92.702667 
	C99.685425,92.282051 98.386932,91.567810 96.991211,90.535980 
	C98.163879,90.948616 99.433769,91.678833 100.843796,92.702667 
z"/>
<path fill="#385DEE" opacity="1.000000" stroke="none" 
	d="
M66.098572,66.800301 
	C65.188583,67.646278 64.313400,68.310646 63.206802,69.226044 
	C63.401264,68.459511 63.827152,67.441963 64.525261,66.242599 
	C65.242783,66.246758 65.688080,66.432724 66.098572,66.800301 
z"/>
<path fill="#1936A0" opacity="1.000000" stroke="none" 
	d="
M67.263901,50.712830 
	C66.857513,50.172001 66.615829,49.416332 66.338776,48.365868 
	C66.678474,48.880043 67.053543,49.689014 67.263901,50.712830 
z"/>
<path fill="#437BED" opacity="1.000000" stroke="none" 
	d="
M96.724136,89.817589 
	C95.917580,89.633537 95.033501,89.143311 94.073654,88.338821 
	C94.880798,88.520180 95.763710,89.015793 96.724136,89.817589 
z"/>
<path fill="#385DEE" opacity="1.000000" stroke="none" 
	d="
M71.753990,70.990707 
	C71.614296,71.102013 71.438072,71.038582 71.027512,70.817078 
	C71.101273,70.711327 71.409363,70.763649 71.753990,70.990707 
z"/>
<path fill="#0C30A9" opacity="1.000000" stroke="none" 
	d="
M63.951130,43.778084 
	C64.008453,43.867455 63.626034,43.668503 63.521339,43.481262 
	C63.604652,43.391747 63.763706,43.523312 63.951130,43.778084 
z"/>
<path fill="#4B8FEA" opacity="1.000000" stroke="none" 
	d="
M138.124603,138.678421 
	C135.571259,139.183151 133.028152,140.013840 130.461502,140.094376 
	C128.214432,140.164886 125.916000,138.957565 123.684395,139.085388 
	C119.378166,139.332016 117.727570,137.147156 117.093697,133.359680 
	C116.861038,131.969543 116.195526,130.651855 115.390465,128.759033 
	C115.808800,126.421387 116.564133,124.625847 117.599457,122.973755 
	C119.068504,123.896507 120.257561,124.675804 121.472961,125.508362 
	C121.499306,125.561623 121.615013,125.534546 121.712708,125.756912 
	C122.034599,126.250114 122.322281,126.377007 122.760483,126.337067 
	C122.847519,126.314171 122.690941,126.402954 122.864731,126.689133 
	C125.378517,127.947121 127.718506,128.918915 130.278107,130.096039 
	C131.231384,130.604065 131.965057,130.906784 132.829453,131.490753 
	C133.659851,132.138931 134.359543,132.505859 135.191818,132.993774 
	C135.324417,133.114761 135.657776,133.248093 135.727448,133.522827 
	C136.184036,134.199295 136.570953,134.601028 136.994598,135.326904 
	C137.395752,136.660172 137.760178,137.669296 138.124603,138.678421 
z"/>
<path fill="#41962A" opacity="1.000000" stroke="none" 
	d="
M179.459351,109.997719 
	C178.607071,113.989647 177.754776,117.981575 176.888519,122.348679 
	C173.028702,126.631439 169.182816,130.539017 165.171722,134.738373 
	C164.445480,135.189880 163.884415,135.349594 162.824265,135.795624 
	C161.618423,136.581787 160.911697,137.081665 160.204971,137.581543 
	C158.269150,138.203537 156.333328,138.825546 153.909164,139.762390 
	C153.192566,140.350586 152.964310,140.623901 152.736053,140.897217 
	C152.192810,140.987762 151.649582,141.078308 150.524414,141.312546 
	C149.694168,141.810654 149.445847,142.165039 149.197525,142.519440 
	C149.189972,142.772232 149.083252,142.972076 148.426819,142.949615 
	C147.656586,142.180069 147.336853,141.579880 147.191650,140.692139 
	C151.660278,137.974869 155.807251,135.224167 160.276123,133.175705 
	C173.593399,127.071259 179.184021,113.784821 174.025238,100.067032 
	C172.876266,97.011749 172.100098,93.816277 171.487183,90.784851 
	C173.166962,92.305069 174.511810,93.725784 175.923462,95.083603 
	C175.990250,95.020714 175.843765,95.130791 175.849625,95.420670 
	C176.205261,96.149315 176.555038,96.588074 176.948334,97.341476 
	C177.111908,98.061600 177.231964,98.467094 177.268463,99.204300 
	C177.713318,100.710464 178.241714,101.884918 178.792816,103.494949 
	C179.030121,105.952927 179.244736,107.975327 179.459351,109.997719 
z"/>
<path fill="#499B08" opacity="1.000000" stroke="none" 
	d="
M138.445374,138.715210 
	C137.760178,137.669296 137.395752,136.660172 137.188568,135.132553 
	C137.506546,134.096512 137.667297,133.578949 138.105377,133.049133 
	C138.567490,133.027679 138.752304,133.018463 139.180267,132.979126 
	C139.241791,131.020111 139.060196,129.091217 138.912445,126.762146 
	C138.990250,125.826248 139.034225,125.290543 139.420502,124.634476 
	C139.829956,120.346886 139.897095,116.179672 140.234222,112.005569 
	C140.683990,111.992241 140.863785,111.985802 141.393097,111.995628 
	C142.854324,112.333702 143.966080,112.655510 144.992096,113.338364 
	C144.411407,115.804131 143.916473,117.908852 143.343155,120.343140 
	C143.188370,121.117836 143.111954,121.562965 142.790771,122.249451 
	C142.464767,124.515312 142.062714,126.598770 142.419907,128.542709 
	C142.641998,129.751434 144.013565,130.748978 145.129700,131.985596 
	C145.914261,132.410660 146.438339,132.691406 146.904175,133.252533 
	C146.551498,134.015778 146.257065,134.498657 145.643127,135.114349 
	C144.909653,136.517593 144.495682,137.788010 144.080597,139.072266 
	C144.079468,139.086075 144.085312,139.117981 143.655365,139.101395 
	C142.366577,139.112076 141.507736,139.139328 140.648911,139.166595 
	C140.021317,139.028397 139.393738,138.890198 138.445374,138.715210 
z"/>
<path fill="#679CF2" opacity="1.000000" stroke="none" 
	d="
M117.319466,122.830299 
	C116.564133,124.625847 115.808800,126.421387 115.064262,128.603271 
	C115.380226,133.569916 115.867813,138.150177 115.869598,142.730621 
	C115.870079,143.963959 114.394562,145.197876 113.314857,146.260666 
	C112.696373,136.678818 112.359596,127.267822 112.339371,117.431381 
	C113.086296,117.006554 113.516685,117.007164 114.180603,117.044579 
	C114.414146,117.081383 114.884590,117.128906 114.914665,117.107559 
	C114.944740,117.086220 114.876724,117.057671 114.851318,117.405151 
	C115.469109,118.650085 116.112297,119.547539 116.793854,120.586205 
	C116.832222,120.727425 117.053139,120.919411 117.051003,121.243904 
	C117.139061,121.989029 117.229263,122.409668 117.319466,122.830299 
z"/>
<path fill="#409914" opacity="1.000000" stroke="none" 
	d="
M147.017120,140.979675 
	C147.336853,141.579880 147.656586,142.180069 148.255463,142.985535 
	C148.186981,143.864151 147.839325,144.537491 147.079742,145.711304 
	C146.582703,146.904114 146.497604,147.596436 146.412491,148.288742 
	C146.412491,148.288742 146.415009,148.383209 145.951019,148.305496 
	C141.864243,148.139618 141.673035,145.735031 142.285553,142.980774 
	C143.398499,142.371429 144.188202,141.787460 145.316895,141.158295 
	C146.109634,141.068619 146.563370,141.024139 147.017120,140.979675 
z"/>
<path fill="#469750" opacity="1.000000" stroke="none" 
	d="
M141.962311,143.006119 
	C141.673035,145.735031 141.864243,148.139618 145.905273,148.317261 
	C142.384674,151.193436 141.340485,150.552338 140.149689,144.087921 
	C140.065079,143.507751 140.063538,143.029770 140.063538,143.029770 
	C140.063538,143.029770 139.999466,143.014786 140.269867,143.051758 
	C140.540283,143.088715 141.024857,142.995331 141.259277,142.994339 
	C141.493683,142.993347 141.962311,143.006119 141.962311,143.006119 
z"/>
<path fill="#41962A" opacity="1.000000" stroke="none" 
	d="
M142.285553,142.980774 
	C141.962311,143.006119 141.493683,142.993347 141.222412,142.632935 
	C140.803787,141.572784 140.656433,140.873047 140.509094,140.173325 
	C140.532135,140.005478 140.555176,139.837616 140.613571,139.418167 
	C141.507736,139.139328 142.366577,139.112076 143.688416,139.388275 
	C144.426910,140.195648 144.702423,140.699570 144.977921,141.203476 
	C144.188202,141.787460 143.398499,142.371429 142.285553,142.980774 
z"/>
<path fill="#469750" opacity="1.000000" stroke="none" 
	d="
M146.644775,148.131622 
	C146.497604,147.596436 146.582703,146.904114 146.868134,146.028275 
	C147.004639,146.554657 146.940842,147.264572 146.644775,148.131622 
z"/>
<path fill="#498BEC" opacity="1.000000" stroke="none" 
	d="
M160.569458,137.623566 
	C160.911697,137.081665 161.618423,136.581787 162.654282,136.039398 
	C162.300247,136.553101 161.617096,137.109344 160.569458,137.623566 
z"/>
<path fill="#4B8FEA" opacity="1.000000" stroke="none" 
	d="
M140.388824,140.442429 
	C140.656433,140.873047 140.803787,141.572784 140.987991,142.633911 
	C141.024857,142.995331 140.540283,143.088715 140.294312,143.073853 
	C140.121719,142.276505 140.195129,141.494019 140.388824,140.442429 
z"/>
<path fill="#498BEC" opacity="1.000000" stroke="none" 
	d="
M152.972504,140.788727 
	C152.964310,140.623901 153.192566,140.350586 153.686981,140.021210 
	C153.705093,140.203522 153.457016,140.441864 152.972504,140.788727 
z"/>
<path fill="#469750" opacity="1.000000" stroke="none" 
	d="
M149.482208,142.364899 
	C149.445847,142.165039 149.694168,141.810654 150.247620,141.324524 
	C150.290802,141.531982 150.028854,141.871170 149.482208,142.364899 
z"/>
<path fill="#4B8FEA" opacity="1.000000" stroke="none" 
	d="
M139.946106,143.120255 
	C140.063538,143.029770 140.065079,143.507751 140.013428,143.740723 
	C139.700027,143.747528 139.655670,143.493210 139.946106,143.120255 
z"/>
<path fill="#7293EA" opacity="1.000000" stroke="none" 
	d="
M109.015076,71.971870 
	C110.101334,72.278885 111.187584,72.585899 112.768387,73.136856 
	C113.491302,73.614143 113.742630,73.819374 113.924706,74.387680 
	C114.307861,81.753052 114.783211,88.727234 115.326904,95.981544 
	C115.312927,96.830276 115.230614,97.398888 114.940063,98.191208 
	C114.627769,98.996964 114.523712,99.579002 114.208679,100.461716 
	C113.689217,102.176346 113.380707,103.590309 112.943359,105.426987 
	C112.914207,107.892807 113.013893,109.935898 113.042099,112.245949 
	C112.893677,112.680305 112.816727,112.847710 112.739777,113.015114 
	C112.161430,111.591919 111.178078,110.197708 111.073776,108.740578 
	C110.581230,101.859772 110.428894,94.954155 109.906273,88.076317 
	C109.803352,86.721886 108.602959,85.450844 107.531883,84.095886 
	C107.129311,80.974457 107.103561,77.898499 107.409531,74.281952 
	C108.165871,73.151543 108.590477,72.561707 109.015076,71.971870 
z"/>
<path fill="#519C11" opacity="1.000000" stroke="none" 
	d="
M113.072189,105.004265 
	C113.380707,103.590309 113.689217,102.176346 114.432449,100.377914 
	C114.960876,99.318130 115.054581,98.642815 115.148293,97.967499 
	C115.230614,97.398888 115.312927,96.830276 115.633034,95.808243 
	C116.899780,93.879768 117.928734,92.404716 118.955444,91.042587 
	C118.953209,91.155502 119.272446,91.170006 119.272446,91.170006 
	C119.272446,91.170006 118.941803,90.953026 118.979294,90.655701 
	C119.058456,89.963806 119.100128,89.569244 119.497528,89.155159 
	C120.995483,89.280388 122.137726,89.425140 123.262177,89.890030 
	C123.749107,90.830956 124.253822,91.451744 124.841049,92.382553 
	C125.018829,93.108513 125.114098,93.524452 125.140152,94.289413 
	C127.365105,96.833687 129.659271,99.028946 132.140869,101.400986 
	C132.656509,101.657448 132.984726,101.737129 133.543945,101.873199 
	C134.062729,102.067390 134.363327,102.166206 134.788635,102.491562 
	C135.311432,103.158249 135.722351,103.559387 135.928802,104.150970 
	C135.528992,104.852165 135.333633,105.362915 135.093170,105.916534 
	C135.048050,105.959396 134.958542,106.045906 134.649307,105.891312 
	C129.649063,102.352318 124.958061,98.967926 120.036919,95.417503 
	C119.859673,95.715988 119.160721,96.780861 118.571518,97.903351 
	C114.380775,105.887024 115.786591,113.532265 119.644882,121.023972 
	C118.534546,121.007774 117.793846,120.963593 117.053139,120.919411 
	C117.053139,120.919411 116.832222,120.727425 116.815384,120.235435 
	C116.157936,118.848190 115.517334,117.952927 114.876724,117.057671 
	C114.876724,117.057671 114.944740,117.086220 114.975883,116.860992 
	C114.668869,116.090782 114.330711,115.545784 113.800095,114.939842 
	C113.607635,114.878891 113.204048,114.890602 113.204056,114.890602 
	C113.150726,114.459595 113.097389,114.028595 112.891922,113.306351 
	C112.816727,112.847710 112.893677,112.680305 113.226044,111.934021 
	C113.345039,109.238174 113.208618,107.121216 113.072189,105.004265 
z"/>
<path fill="#7293EA" opacity="1.000000" stroke="none" 
	d="
M112.975395,115.102097 
	C113.204048,114.890602 113.607635,114.878891 113.758987,115.273125 
	C113.922585,116.114166 113.934830,116.560974 113.947067,117.007782 
	C113.516685,117.007164 113.086296,117.006554 112.333328,117.005142 
	C112.256081,116.440758 112.501411,115.877182 112.975395,115.102097 
z"/>
<path fill="#3863F4" opacity="1.000000" stroke="none" 
	d="
M123.279968,89.569901 
	C122.137726,89.425140 120.995483,89.280388 119.266129,88.823410 
	C118.118454,85.082947 117.782677,81.595215 116.898163,78.252708 
	C116.484444,76.689301 115.010384,75.406487 114.016899,73.996506 
	C113.742630,73.819374 113.491302,73.614143 113.102646,73.196106 
	C112.977501,72.518021 113.012642,72.024620 113.087006,71.159256 
	C120.100197,71.564606 127.063660,72.462761 134.052368,73.070686 
	C137.813461,73.397858 141.617828,73.227402 146.059296,73.055000 
	C147.188095,72.687134 147.660309,72.545738 148.558533,72.500214 
	C151.594299,72.637711 154.204010,72.679321 156.813736,72.720932 
	C158.246567,73.903267 159.690002,75.073051 161.109222,76.271515 
	C162.498749,77.444908 163.727814,79.263466 165.289871,79.607811 
	C166.236755,79.816551 167.682220,77.763618 168.964996,76.031937 
	C169.015869,74.893227 169.005432,74.449348 168.994995,74.005463 
	C169.009384,73.585426 169.023788,73.165382 169.042877,72.431885 
	C173.107498,71.071526 177.167435,70.024635 181.617142,68.912086 
	C182.884811,69.506119 183.762695,70.165810 184.750610,71.352585 
	C184.569733,76.920891 184.278824,81.962120 183.600739,87.028519 
	C180.153534,87.704857 177.093552,88.356026 173.846100,88.715103 
	C172.761826,87.264244 172.033020,85.903320 170.933014,84.988983 
	C168.670746,83.108589 166.099594,84.073433 165.039551,87.384338 
	C164.698166,89.527367 164.387070,91.285927 163.808746,92.983269 
	C163.361343,92.891907 163.181198,92.861748 162.948959,92.466110 
	C159.801392,91.068893 156.715179,89.196640 153.608658,89.162270 
	C144.104645,89.057114 134.592834,89.658279 124.790031,89.880157 
	C124.090668,89.707039 123.685318,89.638474 123.279968,89.569901 
z"/>
<path fill="#0B30AB" opacity="1.000000" stroke="none" 
	d="
M128.057816,41.415123 
	C128.035614,40.528202 128.035080,40.074680 128.018127,39.279854 
	C128.761795,36.974155 129.521851,35.009762 130.434158,32.711060 
	C134.045303,27.269371 137.532959,22.212214 145.436035,24.124718 
	C147.705795,25.953026 149.547668,27.776464 151.631897,29.812126 
	C152.422714,31.184898 152.971176,32.345451 153.734680,33.750664 
	C154.471863,35.493797 154.993973,36.992271 155.738892,39.158745 
	C157.337677,45.554268 158.713654,51.281784 160.089630,57.009300 
	C159.879303,57.319622 159.668976,57.629948 158.760925,58.024498 
	C148.399796,58.183411 138.736389,58.258095 129.072968,58.332779 
	C128.343399,56.891731 126.984055,55.441891 127.004021,54.011299 
	C127.060669,49.952827 127.681068,45.902222 128.057816,41.415123 
M136.999390,51.999599 
	C136.999390,51.999599 137.015305,51.975327 137.483185,52.384483 
	C138.639938,52.324306 139.796677,52.264130 141.723160,52.090851 
	C142.497849,52.131104 143.272552,52.171356 144.733429,52.566521 
	C147.575653,52.063477 150.417877,51.560432 153.260101,51.057388 
	C152.160248,48.054565 151.060410,45.051743 149.984360,42.009808 
	C149.984360,42.009808 149.940842,42.024673 149.988464,41.255035 
	C149.308197,39.845333 148.627914,38.435631 147.996078,36.997185 
	C147.996078,36.997185 147.968079,37.045483 147.945908,36.297226 
	C147.231262,34.666378 146.817627,32.795288 145.744385,31.450666 
	C142.772949,27.727854 139.841827,28.412054 138.005905,32.995892 
	C138.005905,32.995892 138.063080,33.029667 137.457840,33.375946 
	C135.658981,38.182411 133.743027,42.951324 132.177811,47.832706 
	C131.920181,48.636173 133.202118,49.933304 134.128067,51.550800 
	C134.745087,51.693260 135.362106,51.835720 136.499008,51.987938 
	C136.672318,51.985416 136.845627,51.982891 136.999390,51.999599 
z"/>
<path fill="#184AAD" opacity="1.000000" stroke="none" 
	d="
M158.988647,59.936249 
	C159.477386,63.124569 159.966125,66.312889 159.847153,69.632858 
	C150.932571,67.077080 142.625687,64.389656 134.386963,61.336788 
	C136.142548,60.614632 137.825256,59.979389 139.518280,59.950584 
	C146.006607,59.840206 152.498245,59.924564 158.988647,59.936249 
z"/>
<path fill="#4989F3" opacity="1.000000" stroke="none" 
	d="
M160.441528,56.964062 
	C158.713654,51.281784 157.337677,45.554268 155.931488,39.438339 
	C157.728806,38.404884 159.556320,37.759842 161.740189,37.040367 
	C162.371124,37.129181 162.591217,37.347389 162.890167,38.098961 
	C163.259506,39.081490 163.495529,39.585617 163.731537,40.089745 
	C164.191833,41.581039 164.652130,43.072334 165.232361,44.868248 
	C165.645859,46.797588 165.939423,48.422310 166.264954,50.457302 
	C164.462433,52.884655 162.627930,54.901741 160.441528,56.964062 
z"/>
<path fill="#91C4F3" opacity="1.000000" stroke="none" 
	d="
M134.318817,61.702225 
	C142.625687,64.389656 150.932571,67.077080 159.567886,69.915894 
	C159.893646,70.248505 159.890961,70.429733 159.890442,71.023247 
	C159.892624,71.435532 159.875275,71.719284 159.875275,71.719284 
	C159.041550,71.944641 158.207825,72.169998 157.093918,72.558144 
	C154.204010,72.679321 151.594299,72.637711 148.481140,72.196342 
	C143.075974,69.291275 138.101120,66.915352 133.312576,64.209694 
	C131.659973,63.275936 130.471191,61.521313 129.070541,60.141655 
	C129.070541,60.141655 129.031830,60.071861 129.377411,60.074425 
	C131.254929,60.618736 132.786880,61.160480 134.318817,61.702225 
z"/>
<path fill="#5592F2" opacity="1.000000" stroke="none" 
	d="
M134.386963,61.336784 
	C132.786880,61.160480 131.254929,60.618736 129.370148,60.035187 
	C129.040161,59.624329 129.063004,59.255268 129.079407,58.609493 
	C138.736389,58.258095 148.399796,58.183411 158.525818,58.182907 
	C158.989960,58.630306 158.991516,59.003513 158.990875,59.656487 
	C152.498245,59.924564 146.006607,59.840206 139.518280,59.950584 
	C137.825256,59.979389 136.142548,60.614632 134.386963,61.336784 
z"/>
<path fill="#1348AC" opacity="1.000000" stroke="none" 
	d="
M168.897293,61.885719 
	C172.338547,62.266388 175.699753,63.074120 179.060974,63.881851 
	C179.101059,64.647293 179.141144,65.412727 179.181229,66.178169 
	C176.069595,67.067039 172.957962,67.955917 169.462753,68.827599 
	C169.021667,68.101280 168.964157,67.392143 168.863693,66.004639 
	C168.744766,64.895737 168.668823,64.465195 168.592880,64.034660 
	C168.667664,63.460697 168.742462,62.886738 168.897293,61.885719 
z"/>
<path fill="#5395F6" opacity="1.000000" stroke="none" 
	d="
M168.392303,64.124786 
	C168.668823,64.465195 168.744766,64.895737 168.801392,65.654068 
	C168.585297,65.392891 168.388519,64.803909 168.392303,64.124786 
z"/>
<path fill="#5395F6" opacity="1.000000" stroke="none" 
	d="
M168.752670,74.076889 
	C169.005432,74.449348 169.015869,74.893227 169.018021,75.670197 
	C168.843277,75.384964 168.676819,74.766640 168.752670,74.076889 
z"/>
<path fill="#78B9F4" opacity="1.000000" stroke="none" 
	d="
M159.992462,71.691010 
	C159.875275,71.719284 159.892624,71.435532 159.898315,71.294998 
	C159.904007,71.154472 160.180862,71.357010 160.180862,71.357010 
	C160.180862,71.357010 160.109634,71.662727 159.992462,71.691010 
z"/>
<path fill="#0C31AD" opacity="1.000000" stroke="none" 
	d="
M183.987930,87.003349 
	C184.278824,81.962120 184.569733,76.920891 185.042236,71.510048 
	C189.591202,67.655830 194.150391,64.677475 200.820648,65.658844 
	C202.680176,66.189621 203.863831,66.548615 205.047501,66.907608 
	C205.806839,67.538589 206.566177,68.169571 207.691040,69.266861 
	C209.188812,71.391602 210.321060,73.050018 211.453308,74.708435 
	C211.275299,74.953468 211.199982,75.226791 211.237030,75.743988 
	C211.171448,76.755272 211.096130,77.550980 211.061630,78.648788 
	C209.792297,83.379967 208.482147,87.809067 207.073456,92.584824 
	C200.907242,100.162796 194.506424,106.959732 184.701111,109.745026 
	C184.364304,109.732948 184.228622,109.747154 184.220093,109.359039 
	C184.138672,105.313728 184.065781,101.656532 184.041779,97.543365 
	C184.056427,93.726059 184.022171,90.364700 183.987930,87.003349 
M189.196304,76.336395 
	C189.432297,83.553955 189.668274,90.771515 190.349899,98.453705 
	C190.733566,98.647514 191.117249,98.841331 191.989929,98.620720 
	C196.754700,94.968849 201.794052,91.211868 203.131989,85.134003 
	C203.886078,81.708389 203.727798,76.912277 201.816605,74.343620 
	C198.946426,70.486107 194.545197,72.500732 190.563416,75.262108 
	C190.321350,75.516335 190.079269,75.770554 189.196304,76.336395 
z"/>
<path fill="#538FEE" opacity="1.000000" stroke="none" 
	d="
M204.945465,66.606201 
	C203.863831,66.548615 202.680176,66.189621 201.228729,65.694389 
	C200.659256,64.000107 200.357559,62.442059 200.023285,60.498161 
	C200.844742,60.229519 201.698746,60.346725 202.797302,60.682907 
	C203.642380,62.702850 204.242905,64.503822 204.945465,66.606201 
z"/>
<path fill="#3F75F4" opacity="1.000000" stroke="none" 
	d="
M183.992874,97.999329 
	C184.065781,101.656532 184.138672,105.313728 184.185089,109.417587 
	C182.851379,109.909058 181.544144,109.953873 179.848129,109.998199 
	C179.244736,107.975327 179.030121,105.952927 179.005966,103.283371 
	C179.077423,101.451141 178.958420,100.266068 179.208603,99.001816 
	C181.049484,98.614876 182.521179,98.307106 183.992874,97.999329 
z"/>
<path fill="#538FEE" opacity="1.000000" stroke="none" 
	d="
M211.549850,74.320709 
	C210.321060,73.050018 209.188812,71.391602 207.957214,69.400681 
	C209.120697,70.689781 210.383545,72.311386 211.549850,74.320709 
z"/>
<path fill="#0C30A9" opacity="1.000000" stroke="none" 
	d="
M164.003036,40.006821 
	C163.495529,39.585617 163.259506,39.081490 163.027710,38.288528 
	C163.446136,38.641094 163.860336,39.282494 164.003036,40.006821 
z"/>
<path fill="#78B9F4" opacity="1.000000" stroke="none" 
	d="
M128.642609,60.110085 
	C130.471191,61.521313 131.659973,63.275936 133.312576,64.209694 
	C138.101120,66.915352 143.075974,69.291275 148.055115,72.100464 
	C147.660309,72.545738 147.188095,72.687134 146.344666,72.833511 
	C140.831924,70.341133 135.646652,67.928696 130.567322,65.310669 
	C128.020798,63.998135 125.667305,62.311115 123.166840,60.464371 
	C124.809662,60.116360 126.512169,60.097435 128.642609,60.110085 
z"/>
<path fill="#7FA8F4" opacity="1.000000" stroke="none" 
	d="
M108.815369,71.908714 
	C108.590477,72.561707 108.165871,73.151543 107.472015,73.824814 
	C107.191635,73.495697 107.180511,73.083130 107.441925,72.308380 
	C107.875900,71.898880 108.037338,71.851585 108.198769,71.804298 
	C108.198769,71.804298 108.615646,71.845558 108.815369,71.908714 
z"/>
<path fill="#7293EA" opacity="1.000000" stroke="none" 
	d="
M108.061623,71.702194 
	C108.037338,71.851585 107.875900,71.898880 107.468857,71.999153 
	C107.456985,71.901451 107.690727,71.750778 108.061623,71.702194 
z"/>
<path fill="#519C11" opacity="1.000000" stroke="none" 
	d="
M138.937134,133.009247 
	C138.752304,133.018463 138.567490,133.027679 137.743561,133.056686 
	C136.622223,133.133682 136.139999,133.190887 135.657776,133.248093 
	C135.657776,133.248093 135.324417,133.114761 135.094070,132.687500 
	C134.142059,131.909988 133.420395,131.559738 132.698730,131.209503 
	C131.965057,130.906784 131.231384,130.604065 130.157516,129.780151 
	C127.441864,128.306961 125.066406,127.354958 122.690941,126.402954 
	C122.690941,126.402954 122.847519,126.314171 122.678047,126.099457 
	C122.210724,125.768021 121.912865,125.651283 121.615013,125.534546 
	C121.615013,125.534546 121.499306,125.561623 121.541939,125.009766 
	C121.657097,123.792671 121.729622,123.127434 122.149994,122.653503 
	C126.308556,124.590652 130.119278,126.336494 134.160858,128.305237 
	C135.906860,130.021851 137.421997,131.515549 138.937134,133.009247 
z"/>
<path fill="#479349" opacity="1.000000" stroke="none" 
	d="
M121.802155,122.462189 
	C121.729622,123.127434 121.657097,123.792671 121.515594,124.956505 
	C120.257561,124.675804 119.068504,123.896507 117.599457,122.973755 
	C117.229263,122.409668 117.139061,121.989029 117.051003,121.243904 
	C117.793846,120.963593 118.534546,121.007774 119.636734,121.027626 
	C119.998215,121.003296 119.997612,120.985512 120.177368,121.237137 
	C120.727524,121.663376 121.097916,121.837982 121.532471,122.086090 
	C121.596626,122.159592 121.802155,122.462189 121.802155,122.462189 
z"/>
<path fill="#479349" opacity="1.000000" stroke="none" 
	d="
M122.864731,126.689133 
	C125.066406,127.354958 127.441864,128.306961 129.937912,129.574844 
	C127.718506,128.918915 125.378517,127.947121 122.864731,126.689133 
z"/>
<path fill="#469750" opacity="1.000000" stroke="none" 
	d="
M135.727448,133.522827 
	C136.139999,133.190887 136.622223,133.133682 137.466248,133.068939 
	C137.667297,133.578949 137.506546,134.096512 137.151825,134.808411 
	C136.570953,134.601028 136.184036,134.199295 135.727448,133.522827 
z"/>
<path fill="#469750" opacity="1.000000" stroke="none" 
	d="
M132.829453,131.490753 
	C133.420395,131.559738 134.142059,131.909988 134.961472,132.566498 
	C134.359543,132.505859 133.659851,132.138931 132.829453,131.490753 
z"/>
<path fill="#479349" opacity="1.000000" stroke="none" 
	d="
M121.712708,125.756912 
	C121.912865,125.651283 122.210724,125.768021 122.591011,126.122353 
	C122.322281,126.377007 122.034599,126.250114 121.712708,125.756912 
z"/>
<path fill="#046931" opacity="1.000000" stroke="none" 
	d="
M145.316895,141.158295 
	C144.702423,140.699570 144.426910,140.195648 144.118362,139.404861 
	C144.085312,139.117981 144.079468,139.086075 144.326721,138.857208 
	C145.036865,137.412720 145.499741,136.197128 145.962616,134.981522 
	C146.257065,134.498657 146.551498,134.015778 147.146210,133.020126 
	C150.664886,128.009155 153.883270,123.510956 157.383194,118.913666 
	C158.105194,118.191833 158.545639,117.569092 159.112061,116.756767 
	C159.432190,116.328545 159.663818,116.134697 160.277267,115.912476 
	C163.102371,112.676788 165.583145,109.514282 168.063919,106.351776 
	C167.365051,105.789780 166.666199,105.227783 165.967331,104.665787 
	C163.306900,107.778839 160.646484,110.891891 157.708923,113.812370 
	C155.966812,111.417549 154.501831,109.215302 153.032028,106.766693 
	C153.027191,106.520348 153.022964,106.027893 153.244965,105.802238 
	C154.605652,105.039101 155.744324,104.501617 157.222076,103.956421 
	C158.361115,103.607925 159.161102,103.267151 159.983521,102.936478 
	C160.005951,102.946571 159.958496,102.955856 160.158478,102.790741 
	C160.555740,102.341751 160.753021,102.057884 161.076843,101.608116 
	C161.401489,101.241791 161.629211,101.084122 162.200653,100.905884 
	C162.983826,100.430481 163.452866,100.018410 163.998505,99.332390 
	C164.695770,98.361519 165.316437,97.664612 166.149139,96.809959 
	C166.550842,96.356300 166.740494,96.060387 167.013382,95.409203 
	C167.850311,92.969208 168.604019,90.884476 169.592712,88.923561 
	C170.269211,89.593369 170.710754,90.139351 171.152283,90.685341 
	C172.100098,93.816277 172.876266,97.011749 174.025238,100.067032 
	C179.184021,113.784821 173.593399,127.071259 160.276123,133.175705 
	C155.807251,135.224167 151.660278,137.974869 147.191650,140.692139 
	C146.563370,141.024139 146.109634,141.068619 145.316895,141.158295 
z"/>
<path fill="#3C6CF5" opacity="1.000000" stroke="none" 
	d="
M184.041779,97.543365 
	C182.521179,98.307106 181.049484,98.614876 178.963379,98.956924 
	C178.016632,98.951668 177.684326,98.912132 177.352020,98.872589 
	C177.231964,98.467094 177.111908,98.061600 177.117462,97.152405 
	C176.776627,96.142731 176.310196,95.636757 175.843765,95.130791 
	C175.843765,95.130791 175.990250,95.020714 175.963425,94.716568 
	C175.302246,92.610687 174.667892,90.808945 174.033539,89.007202 
	C177.093552,88.356026 180.153534,87.704857 183.600739,87.028519 
	C184.022171,90.364700 184.056427,93.726059 184.041779,97.543365 
z"/>
<path fill="#427ABD" opacity="1.000000" stroke="none" 
	d="
M173.846100,88.715103 
	C174.667892,90.808945 175.302246,92.610687 175.896637,94.779465 
	C174.511810,93.725784 173.166962,92.305069 171.487183,90.784851 
	C170.710754,90.139351 170.269211,89.593369 169.736115,88.623039 
	C169.144012,83.890213 166.725983,86.898682 165.069839,86.999855 
	C166.099594,84.073433 168.670746,83.108589 170.933014,84.988983 
	C172.033020,85.903320 172.761826,87.264244 173.846100,88.715103 
z"/>
<path fill="#427ABD" opacity="1.000000" stroke="none" 
	d="
M177.268463,99.204300 
	C177.684326,98.912132 178.016632,98.951668 178.594177,99.036102 
	C178.958420,100.266068 179.077423,101.451141 178.983276,102.847794 
	C178.241714,101.884918 177.713318,100.710464 177.268463,99.204300 
z"/>
<path fill="#427ABD" opacity="1.000000" stroke="none" 
	d="
M175.849625,95.420670 
	C176.310196,95.636757 176.776627,96.142731 177.073929,96.837769 
	C176.555038,96.588074 176.205261,96.149315 175.849625,95.420670 
z"/>
<path fill="#83BC3F" opacity="1.000000" stroke="none" 
	d="
M122.149994,122.653503 
	C121.802155,122.462189 121.596626,122.159592 121.308014,121.881943 
	C120.678802,121.398026 120.338211,121.191765 119.997612,120.985512 
	C119.997612,120.985512 119.998215,121.003296 120.006363,120.999649 
	C115.786591,113.532265 114.380775,105.887024 118.571518,97.903351 
	C119.160721,96.780861 119.859673,95.715988 120.036919,95.417503 
	C124.958061,98.967926 129.649063,102.352318 134.831451,106.160706 
	C136.869980,108.393951 138.417099,110.203209 139.964233,112.012459 
	C139.897095,116.179672 139.829956,120.346886 139.383301,124.297470 
	C137.465057,120.826355 135.976578,117.523781 131.328278,115.720360 
	C133.600388,119.455116 135.287552,122.228401 136.717194,125.172813 
	C135.616440,126.256737 134.773224,127.169540 133.929993,128.082336 
	C130.119278,126.336494 126.308556,124.590652 122.149994,122.653503 
z"/>
<path fill="#026738" opacity="1.000000" stroke="none" 
	d="
M153.036865,107.013046 
	C154.501831,109.215302 155.966812,111.417549 157.706116,114.026688 
	C157.980453,114.433578 157.965775,114.862099 157.688446,115.039795 
	C155.903595,116.806908 154.396072,118.396324 152.716400,120.121246 
	C152.325867,120.454216 152.139999,120.678650 151.975220,120.947174 
	C151.963745,120.964317 151.929459,120.987221 151.748138,121.122818 
	C151.337906,121.459564 151.145752,121.691216 150.988617,121.969955 
	C150.986862,121.986557 150.953705,121.990585 150.768173,122.127991 
	C150.348816,122.470390 150.154160,122.707535 150.001007,122.990150 
	C150.003342,123.003471 149.976639,122.999100 149.787170,123.139221 
	C149.361526,123.492386 149.170044,123.740005 149.016479,124.010406 
	C149.009659,123.998611 149.033676,124.021790 148.830414,124.216537 
	C148.406723,124.920998 148.186310,125.430717 147.970947,125.958115 
	C147.976028,125.975792 147.941376,125.988159 147.755447,126.138283 
	C147.335800,126.511497 147.147690,126.768044 146.887192,127.300125 
	C146.480621,127.996704 146.192032,128.451187 145.584625,128.771027 
	C144.522369,126.426941 143.778946,124.217522 143.035538,122.008095 
	C143.111954,121.562965 143.188370,121.117836 143.609772,120.191971 
	C145.282425,116.784805 146.610123,113.858376 147.966187,110.967010 
	C147.994568,111.002068 147.929657,110.937599 148.267334,110.883652 
	C149.726852,109.548454 150.848694,108.267204 151.978882,106.985565 
	C151.987198,106.985176 151.994598,106.970406 152.254959,106.986038 
	C152.689163,107.005455 152.863022,107.009254 153.036865,107.013046 
z"/>
<path fill="#429333" opacity="1.000000" stroke="none" 
	d="
M165.039551,87.384338 
	C166.725983,86.898682 169.144012,83.890213 169.501144,88.499222 
	C168.604019,90.884476 167.850311,92.969208 166.818924,95.586624 
	C166.339844,96.402107 166.138474,96.684906 165.937103,96.967705 
	C165.316437,97.664612 164.695770,98.361519 163.712158,99.457779 
	C162.861649,100.227821 162.374084,100.598518 161.886536,100.969208 
	C161.629211,101.084122 161.401489,101.241791 160.864136,101.765320 
	C160.336090,102.377579 160.147293,102.666718 159.958496,102.955856 
	C159.958496,102.955856 160.005951,102.946571 159.646667,102.920639 
	C158.485916,103.251183 157.684464,103.607651 156.882996,103.964127 
	C155.744324,104.501617 154.605652,105.039101 153.035156,105.914383 
	C152.334976,106.436127 152.132065,106.675537 151.994598,106.970406 
	C151.994598,106.970406 151.987198,106.985176 151.651505,107.054436 
	C150.187088,108.394997 149.058365,109.666290 147.929657,110.937592 
	C147.929657,110.937599 147.994568,111.002068 147.674469,111.036774 
	C146.595520,111.706749 145.836670,112.342033 145.077820,112.977318 
	C143.966080,112.655510 142.854324,112.333702 141.405746,111.607178 
	C141.125977,110.687302 141.183029,110.172134 141.563141,109.697403 
	C142.882111,109.129646 143.878036,108.521461 145.124664,107.737625 
	C146.257507,106.721077 147.139664,105.880165 148.362671,104.995674 
	C150.678619,103.552238 152.653702,102.152374 154.956268,100.655121 
	C157.280273,99.162338 159.276779,97.766953 161.585037,96.267944 
	C162.623184,95.124374 163.349579,94.084427 164.075974,93.044479 
	C164.387070,91.285927 164.698166,89.527367 165.039551,87.384338 
z"/>
<path fill="#38951C" opacity="1.000000" stroke="none" 
	d="
M152.888535,119.985748 
	C154.396072,118.396324 155.903595,116.806908 157.971344,115.119003 
	C158.998688,115.342232 159.465805,115.663940 159.932938,115.985641 
	C159.663818,116.134697 159.432190,116.328545 158.865143,116.904594 
	C158.028687,117.832253 157.565170,118.422501 157.101639,119.012756 
	C153.883270,123.510956 150.664886,128.009155 147.204453,132.739746 
	C146.438339,132.691406 145.914261,132.410660 145.211761,131.689484 
	C145.323364,130.467911 145.613403,129.686798 145.903442,128.905670 
	C146.192032,128.451187 146.480621,127.996704 147.080017,127.155426 
	C147.631989,126.549133 147.815506,126.288979 147.941376,125.988159 
	C147.941376,125.988159 147.976028,125.975792 148.177917,125.766403 
	C148.597763,125.045273 148.815720,124.533531 149.033676,124.021790 
	C149.033676,124.021790 149.009659,123.998611 149.213226,123.878021 
	C149.656815,123.544090 149.843430,123.291313 149.976639,122.999100 
	C149.976639,122.999100 150.003342,123.003471 150.195496,122.862617 
	C150.630325,122.519829 150.819016,122.276108 150.953705,121.990585 
	C150.953705,121.990585 150.986862,121.986557 151.177887,121.843155 
	C151.605560,121.501419 151.792404,121.263908 151.929459,120.987221 
	C151.929459,120.987221 151.963745,120.964317 152.161240,120.826691 
	C152.591782,120.497139 152.768387,120.262703 152.888535,119.985748 
z"/>
<path fill="#589C0F" opacity="1.000000" stroke="none" 
	d="
M136.974731,125.001686 
	C135.287552,122.228401 133.600388,119.455116 131.328278,115.720360 
	C135.976578,117.523781 137.465057,120.826355 139.040985,124.417847 
	C139.034225,125.290543 138.990250,125.826248 138.712341,126.552734 
	C137.977188,126.162918 137.475952,125.582298 136.974731,125.001686 
z"/>
<path fill="#79BC36" opacity="1.000000" stroke="none" 
	d="
M136.717194,125.172813 
	C137.475952,125.582298 137.977188,126.162918 138.678497,126.952934 
	C139.060196,129.091217 139.241791,131.020111 139.180267,132.979126 
	C137.421997,131.515549 135.906860,130.021851 134.160858,128.305237 
	C134.773224,127.169540 135.616440,126.256737 136.717194,125.172813 
z"/>
<path fill="#096C24" opacity="1.000000" stroke="none" 
	d="
M144.992096,113.338364 
	C145.836670,112.342033 146.595520,111.706749 147.646088,111.001709 
	C146.610123,113.858376 145.282425,116.784805 143.688141,119.862411 
	C143.916473,117.908852 144.411407,115.804131 144.992096,113.338364 
z"/>
<path fill="#096C24" opacity="1.000000" stroke="none" 
	d="
M145.584625,128.771027 
	C145.613403,129.686798 145.323364,130.467911 144.951263,131.545166 
	C144.013565,130.748978 142.641998,129.751434 142.419907,128.542709 
	C142.062714,126.598770 142.464767,124.515312 142.790771,122.249451 
	C143.778946,124.217522 144.522369,126.426941 145.584625,128.771027 
z"/>
<path fill="#519C11" opacity="1.000000" stroke="none" 
	d="
M141.240082,109.656975 
	C141.183029,110.172134 141.125977,110.687302 141.056244,111.590912 
	C140.863785,111.985802 140.683990,111.992241 140.234222,112.005569 
	C138.417099,110.203209 136.869980,108.393951 135.140686,106.315308 
	C134.958542,106.045906 135.048050,105.959396 135.452255,105.940323 
	C136.828659,105.969284 137.800842,106.017334 139.006454,106.287537 
	C139.906601,107.558784 140.573349,108.607880 141.240082,109.656975 
z"/>
<path fill="#38951C" opacity="1.000000" stroke="none" 
	d="
M145.643127,135.114349 
	C145.499741,136.197128 145.036865,137.412720 144.327850,138.843384 
	C144.495682,137.788010 144.909653,136.517593 145.643127,135.114349 
z"/>
<path fill="#479349" opacity="1.000000" stroke="none" 
	d="
M114.851318,117.405151 
	C115.517334,117.952927 116.157936,118.848190 116.777016,120.094215 
	C116.112297,119.547539 115.469109,118.650085 114.851318,117.405151 
z"/>
<path fill="#4B904D" opacity="1.000000" stroke="none" 
	d="
M114.180603,117.044586 
	C113.934830,116.560974 113.922585,116.114166 113.951447,115.334076 
	C114.330711,115.545784 114.668869,116.090782 114.945808,116.882339 
	C114.884590,117.128906 114.414146,117.081383 114.180603,117.044586 
z"/>
<path fill="#4D72F3" opacity="1.000000" stroke="none" 
	d="
M113.924706,74.387680 
	C115.010384,75.406487 116.484444,76.689301 116.898163,78.252708 
	C117.782677,81.595215 118.118454,85.082947 118.910408,88.842934 
	C119.100128,89.569244 119.058456,89.963806 119.011871,90.672066 
	C119.006950,90.985764 118.957680,90.929657 118.957687,90.929657 
	C117.928734,92.404716 116.899780,93.879768 115.564697,95.528122 
	C114.783211,88.727234 114.307861,81.753052 113.924706,74.387680 
z"/>
<path fill="#4B904D" opacity="1.000000" stroke="none" 
	d="
M112.943352,105.426987 
	C113.208618,107.121216 113.345039,109.238174 113.297516,111.667053 
	C113.013893,109.935898 112.914207,107.892807 112.943352,105.426987 
z"/>
<path fill="#4B904D" opacity="1.000000" stroke="none" 
	d="
M114.940063,98.191208 
	C115.054581,98.642815 114.960876,99.318130 114.643410,100.077248 
	C114.523712,99.579002 114.627769,98.996964 114.940063,98.191208 
z"/>
<path fill="#3C6EF5" opacity="1.000000" stroke="none" 
	d="
M148.021835,105.039253 
	C147.139664,105.880165 146.257507,106.721077 144.812103,107.637177 
	C142.506378,106.804192 140.763916,105.896011 138.821243,104.861137 
	C138.357681,104.551468 138.140579,104.324295 137.868591,103.717697 
	C136.737228,102.996986 135.706985,102.611504 134.676743,102.226028 
	C134.363327,102.166206 134.062729,102.067390 133.524078,101.618011 
	C133.208252,101.148590 133.143280,100.990738 132.982391,100.515930 
	C130.327438,98.112770 127.768402,96.026581 125.209366,93.940392 
	C125.114098,93.524452 125.018829,93.108513 124.953217,92.046021 
	C125.016594,90.927879 125.050323,90.456291 125.084045,89.984711 
	C134.592834,89.658279 144.104645,89.057114 153.608658,89.162270 
	C156.715179,89.196640 159.801392,91.068893 162.700684,92.709846 
	C162.094101,94.336563 161.683685,95.354057 161.273285,96.371559 
	C159.276779,97.766953 157.280273,99.162338 154.588715,100.542969 
	C151.936386,102.031898 149.979111,103.535576 148.021835,105.039253 
z"/>
<path fill="#427ABD" opacity="1.000000" stroke="none" 
	d="
M125.140152,94.289413 
	C127.768402,96.026581 130.327438,98.112770 132.700287,100.611374 
	C132.327209,101.090584 132.140320,101.157387 131.953430,101.224197 
	C129.659271,99.028946 127.365105,96.833687 125.140152,94.289413 
z"/>
<path fill="#429333" opacity="1.000000" stroke="none" 
	d="
M137.969727,104.052933 
	C138.140579,104.324295 138.357681,104.551468 138.756210,105.129852 
	C138.851944,105.705299 138.812485,105.885338 138.773041,106.065384 
	C137.800842,106.017334 136.828659,105.969284 135.497375,105.897453 
	C135.333633,105.362915 135.528992,104.852165 136.235931,104.156639 
	C137.154922,103.998886 137.562317,104.025909 137.969727,104.052933 
z"/>
<path fill="#427ABD" opacity="1.000000" stroke="none" 
	d="
M137.868591,103.717697 
	C137.562317,104.025909 137.154922,103.998886 136.440384,103.966202 
	C135.722351,103.559387 135.311432,103.158249 134.788635,102.491562 
	C135.706985,102.611504 136.737228,102.996986 137.868591,103.717697 
z"/>
<path fill="#4B904D" opacity="1.000000" stroke="none" 
	d="
M124.790031,89.880157 
	C125.050323,90.456291 125.016594,90.927879 124.870705,91.736000 
	C124.253822,91.451744 123.749107,90.830956 123.262177,89.890030 
	C123.685318,89.638474 124.090668,89.707039 124.790031,89.880157 
z"/>
<path fill="#4B904D" opacity="1.000000" stroke="none" 
	d="
M118.974380,90.969391 
	C118.941803,90.953026 119.272446,91.170006 119.272446,91.170006 
	C119.272446,91.170006 118.953209,91.155502 118.955444,91.042580 
	C118.957680,90.929657 119.006950,90.985764 118.974380,90.969391 
z"/>
<path fill="#4B904D" opacity="1.000000" stroke="none" 
	d="
M132.140869,101.400986 
	C132.140320,101.157387 132.327209,101.090584 132.796204,100.928337 
	C133.143280,100.990738 133.208252,101.148590 133.293060,101.561630 
	C132.984726,101.737129 132.656509,101.657448 132.140869,101.400986 
z"/>
<path fill="#427ABD" opacity="1.000000" stroke="none" 
	d="
M161.585022,96.267929 
	C161.683685,95.354057 162.094101,94.336563 162.752777,93.075317 
	C163.181198,92.861748 163.361343,92.891907 163.808746,92.983269 
	C163.349579,94.084427 162.623184,95.124374 161.585022,96.267929 
z"/>
<path fill="#000000" opacity="1.000000" stroke="none" 
	d="
M135.979126,51.978184 
	C135.362106,51.835720 134.745087,51.693260 134.023392,50.869148 
	C135.300156,44.468216 136.681610,38.748940 138.063080,33.029667 
	C138.063080,33.029667 138.005905,32.995892 138.334381,32.859528 
	C140.842438,30.180035 142.756912,30.857971 144.605423,33.160561 
	C145.676880,34.495216 146.844009,35.753067 147.968079,37.045479 
	C147.968079,37.045483 147.996078,36.997185 148.014923,37.364635 
	C148.669464,39.162949 149.305161,40.593811 149.940842,42.024673 
	C149.940842,42.024673 149.984360,42.009808 149.976929,42.422829 
	C150.626541,45.310841 151.283554,47.785835 152.078415,50.780006 
	C149.164841,51.299366 146.606033,51.755486 144.047241,52.211605 
	C143.272552,52.171356 142.497849,52.131104 140.949478,52.077446 
	C139.122299,52.034470 138.068802,52.004898 137.015305,51.975327 
	C137.015305,51.975327 136.999390,51.999599 136.926361,51.789673 
	C136.561920,51.712563 136.270523,51.845375 135.979126,51.978184 
z"/>
<path fill="#19329B" opacity="1.000000" stroke="none" 
	d="
M137.760452,33.202805 
	C136.681610,38.748940 135.300156,44.468216 133.845627,50.594887 
	C133.202118,49.933304 131.920181,48.636173 132.177811,47.832706 
	C133.743027,42.951324 135.658981,38.182411 137.760452,33.202805 
z"/>
<path fill="#19329B" opacity="1.000000" stroke="none" 
	d="
M144.390335,52.389061 
	C146.606033,51.755486 149.164841,51.299366 152.078415,50.780006 
	C151.283554,47.785835 150.626541,45.310841 149.965027,42.442383 
	C151.060410,45.051743 152.160248,48.054565 153.260101,51.057388 
	C150.417877,51.560432 147.575653,52.063477 144.390335,52.389061 
z"/>
<path fill="#19329B" opacity="1.000000" stroke="none" 
	d="
M147.957001,36.671352 
	C146.844009,35.753067 145.676880,34.495216 144.605423,33.160561 
	C142.756912,30.857971 140.842438,30.180035 138.355194,32.884636 
	C139.841827,28.412054 142.772949,27.727854 145.744385,31.450666 
	C146.817627,32.795288 147.231262,34.666378 147.957001,36.671352 
z"/>
<path fill="#19329B" opacity="1.000000" stroke="none" 
	d="
M149.964661,41.639854 
	C149.305161,40.593811 148.669464,39.162949 147.990692,37.379009 
	C148.627914,38.435631 149.308197,39.845333 149.964661,41.639854 
z"/>
<path fill="#19329B" opacity="1.000000" stroke="none" 
	d="
M137.249237,52.179905 
	C138.068802,52.004898 139.122299,52.034470 140.564606,52.133995 
	C139.796677,52.264130 138.639938,52.324306 137.249237,52.179905 
z"/>
<path fill="#19329B" opacity="1.000000" stroke="none" 
	d="
M136.239075,51.983063 
	C136.270523,51.845375 136.561920,51.712563 136.936127,51.780060 
	C136.845627,51.982891 136.672318,51.985416 136.239075,51.983063 
z"/>
<path fill="#000000" opacity="1.000000" stroke="none" 
	d="
M191.045395,75.046463 
	C194.545197,72.500732 198.946426,70.486107 201.816605,74.343620 
	C203.727798,76.912277 203.886078,81.708389 203.131989,85.134003 
	C201.794052,91.211868 196.754700,94.968849 191.546783,98.481415 
	C191.084229,90.576897 191.064804,82.811676 191.045395,75.046463 
z"/>
<path fill="#0A2A9F" opacity="1.000000" stroke="none" 
	d="
M189.904266,97.989075 
	C189.668274,90.771515 189.432297,83.553955 189.561279,76.645218 
	C189.918915,83.965714 189.911591,90.977394 189.904266,97.989075 
z"/>
<path fill="#5167BD" opacity="1.000000" stroke="none" 
	d="
M190.127075,98.221390 
	C189.911591,90.977394 189.918915,83.965714 189.881714,76.489403 
	C190.079269,75.770554 190.321350,75.516335 190.804413,75.154282 
	C191.064804,82.811676 191.084229,90.576897 191.302277,98.688629 
	C191.117249,98.841331 190.733566,98.647514 190.127075,98.221390 
z"/>
<path fill="#519C11" opacity="1.000000" stroke="none" 
	d="
M120.177368,121.237137 
	C120.338211,121.191765 120.678802,121.398026 121.243851,121.808441 
	C121.097916,121.837982 120.727524,121.663376 120.177368,121.237137 
z"/>
<path fill="#096C24" opacity="1.000000" stroke="none" 
	d="
M160.277267,115.912476 
	C159.465805,115.663940 158.998688,115.342232 158.248657,114.941315 
	C157.965775,114.862099 157.980453,114.433578 157.983261,114.219254 
	C160.646484,110.891891 163.306900,107.778839 165.967331,104.665787 
	C166.666199,105.227783 167.365051,105.789780 168.063919,106.351776 
	C165.583145,109.514282 163.102371,112.676788 160.277267,115.912476 
z"/>
<path fill="#096C24" opacity="1.000000" stroke="none" 
	d="
M157.222076,103.956406 
	C157.684464,103.607651 158.485916,103.251183 159.624237,102.910538 
	C159.161102,103.267151 158.361115,103.607925 157.222076,103.956406 
z"/>
<path fill="#096C24" opacity="1.000000" stroke="none" 
	d="
M157.383194,118.913666 
	C157.565170,118.422501 158.028687,117.832253 158.739151,117.094170 
	C158.545639,117.569092 158.105194,118.191833 157.383194,118.913666 
z"/>
<path fill="#096C24" opacity="1.000000" stroke="none" 
	d="
M162.200653,100.905876 
	C162.374084,100.598518 162.861649,100.227821 163.635559,99.731735 
	C163.452866,100.018410 162.983826,100.430481 162.200653,100.905876 
z"/>
<path fill="#096C24" opacity="1.000000" stroke="none" 
	d="
M166.149139,96.809959 
	C166.138474,96.684906 166.339844,96.402107 166.735687,95.941895 
	C166.740494,96.060387 166.550842,96.356300 166.149139,96.809959 
z"/>
<path fill="#096C24" opacity="1.000000" stroke="none" 
	d="
M152.254959,106.986038 
	C152.132065,106.675537 152.334976,106.436127 152.813141,106.140030 
	C153.022964,106.027893 153.027191,106.520348 153.032028,106.766693 
	C152.863022,107.009254 152.689163,107.005455 152.254959,106.986038 
z"/>
<path fill="#096C24" opacity="1.000000" stroke="none" 
	d="
M160.158478,102.790741 
	C160.147293,102.666718 160.336090,102.377579 160.737595,101.931229 
	C160.753021,102.057884 160.555740,102.341751 160.158478,102.790741 
z"/>
<path fill="#096C24" opacity="1.000000" stroke="none" 
	d="
M148.267334,110.883652 
	C149.058365,109.666290 150.187088,108.394997 151.643188,107.054825 
	C150.848694,108.267204 149.726852,109.548454 148.267334,110.883652 
z"/>
<path fill="#096C24" opacity="1.000000" stroke="none" 
	d="
M148.830414,124.216537 
	C148.815720,124.533531 148.597763,125.045273 148.172852,125.748726 
	C148.186310,125.430717 148.406723,124.920998 148.830414,124.216537 
z"/>
<path fill="#096C24" opacity="1.000000" stroke="none" 
	d="
M147.755447,126.138283 
	C147.815506,126.288979 147.631989,126.549133 147.197998,126.913330 
	C147.147690,126.768044 147.335800,126.511497 147.755447,126.138283 
z"/>
<path fill="#096C24" opacity="1.000000" stroke="none" 
	d="
M152.716400,120.121246 
	C152.768387,120.262703 152.591782,120.497139 152.172699,120.809555 
	C152.139999,120.678650 152.325867,120.454216 152.716400,120.121246 
z"/>
<path fill="#096C24" opacity="1.000000" stroke="none" 
	d="
M151.748138,121.122818 
	C151.792404,121.263908 151.605560,121.501419 151.179657,121.826553 
	C151.145752,121.691216 151.337906,121.459564 151.748138,121.122818 
z"/>
<path fill="#096C24" opacity="1.000000" stroke="none" 
	d="
M150.768173,122.127991 
	C150.819016,122.276108 150.630325,122.519829 150.193146,122.849297 
	C150.154160,122.707535 150.348816,122.470390 150.768173,122.127991 
z"/>
<path fill="#096C24" opacity="1.000000" stroke="none" 
	d="
M149.787170,123.139221 
	C149.843430,123.291313 149.656815,123.544090 149.220032,123.889824 
	C149.170044,123.740005 149.361526,123.492386 149.787170,123.139221 
z"/>
<path fill="#427ABD" opacity="1.000000" stroke="none" 
	d="
M139.006454,106.287537 
	C138.812485,105.885338 138.851944,105.705299 138.956421,105.256546 
	C140.763916,105.896011 142.506378,106.804192 144.561401,107.812820 
	C143.878036,108.521461 142.882111,109.129646 141.563141,109.697403 
	C140.573349,108.607880 139.906601,107.558784 139.006454,106.287537 
z"/>
<path fill="#427ABD" opacity="1.000000" stroke="none" 
	d="
M148.362671,104.995674 
	C149.979111,103.535576 151.936386,102.031898 154.261230,100.640366 
	C152.653702,102.152374 150.678619,103.552238 148.362671,104.995674 
z"/>
</svg>